# rtkd TIN surface, local metres (origin E665970.000 N5915360.000, UTM 29N). Units: metres.
v 12.802 7.462 60.009
v 213.096 14.470 70.000
v 206.104 214.289 69.999
v 5.817 207.283 60.002
v 37.839 8.339 61.257
v 30.853 208.151 61.223
v 62.873 9.212 62.506
v 55.889 209.031 62.420
v 87.913 10.088 63.778
v 80.925 209.909 63.680
v 112.952 10.965 65.073
v 105.962 210.781 64.981
v 137.991 11.840 66.334
v 130.997 211.656 66.248
v 163.025 12.714 67.551
v 156.035 212.532 67.502
v 188.063 13.592 68.771
v 181.068 213.411 68.757
v 11.925 32.441 59.993
v 212.223 39.447 70.019
v 11.056 57.419 60.000
v 211.350 64.422 70.055
v 10.182 82.395 59.994
v 210.473 89.398 70.087
v 9.310 107.375 59.976
v 209.605 114.376 70.065
v 8.440 132.347 59.926
v 208.728 139.356 70.028
v 7.564 157.326 59.924
v 207.856 164.329 69.999
v 6.693 182.301 59.971
v 206.982 189.313 69.994
v 61.128 59.168 62.616
v 59.382 109.119 62.269
v 57.634 159.071 61.240
v 111.202 60.919 66.456
v 109.459 110.873 66.814
v 107.709 160.823 64.779
v 161.277 62.672 68.594
v 159.529 112.631 68.955
v 157.775 162.578 67.623
v 100.838 70.559 65.959
v 120.866 71.257 67.773
v 119.997 96.238 68.275
v 99.966 95.538 66.233
v 148.119 152.239 67.314
v 178.860 133.305 68.805
v 39.359 108.425 61.322
v 67.999 149.435 61.557
f 33 21 19
f 37 38 49
f 49 34 37
f 23 21 33
f 33 7 9
f 11 36 9
f 9 36 33
f 13 36 11
f 45 34 33
f 37 34 45
f 2 20 17
f 39 13 15
f 36 13 39
f 15 17 39
f 39 17 20
f 32 3 18
f 18 41 32
f 16 41 18
f 32 41 30
f 14 41 16
f 12 38 14
f 38 41 14
f 5 19 1
f 5 7 33
f 33 19 5
f 10 38 12
f 31 6 4
f 33 36 42
f 42 45 33
f 37 45 44
f 47 30 41
f 35 49 38
f 38 10 35
f 6 31 35
f 22 39 20
f 22 24 39
f 36 39 43
f 39 44 43
f 43 42 36
f 45 42 43
f 43 44 45
f 28 47 26
f 30 47 28
f 40 44 39
f 39 24 40
f 37 44 40
f 40 24 26
f 26 47 40
f 6 35 8
f 8 35 10
f 29 35 31
f 27 35 29
f 48 35 27
f 48 27 25
f 34 49 48
f 49 35 48
f 25 23 48
f 33 34 48
f 48 23 33
f 46 47 41
f 46 40 47
f 46 41 38
f 46 38 37
f 37 40 46
