  0
SECTION
  2
HEADER
  9
$ACADVER
  1
AC1009
  0
ENDSEC
  0
SECTION
  2
TABLES
  0
TABLE
  2
LAYER
 70
11
  0
LAYER
  2
BORDER
 70
0
 62
7
  6
CONTINUOUS
  0
LAYER
  2
TITLE
 70
0
 62
7
  6
CONTINUOUS
  0
LAYER
  2
POINTS
 70
0
 62
7
  6
CONTINUOUS
  0
LAYER
  2
POINT_NO
 70
0
 62
3
  6
CONTINUOUS
  0
LAYER
  2
POINT_ELEV
 70
0
 62
4
  6
CONTINUOUS
  0
LAYER
  2
POINT_CODE
 70
0
 62
2
  6
CONTINUOUS
  0
LAYER
  2
CONTOUR_MINOR
 70
0
 62
30
  6
CONTINUOUS
  0
LAYER
  2
CONTOUR_MAJOR
 70
0
 62
20
  6
CONTINUOUS
  0
LAYER
  2
CONTOUR_LABEL
 70
0
 62
20
  6
CONTINUOUS
  0
LAYER
  2
TIN
 70
0
 62
8
  6
CONTINUOUS
  0
LAYER
  2
NORTH
 70
0
 62
7
  6
CONTINUOUS
  0
ENDTAB
  0
ENDSEC
  0
SECTION
  2
ENTITIES
  0
POINT
  8
POINTS
 10
665982.8020
 20
5915367.4623
 30
60.0090
  0
TEXT
  8
POINT_NO
 10
665984.3020
 20
5915368.4623
 30
0.0000
 40
2.5000
  1
1
 50
0.00
  0
TEXT
  8
POINT_ELEV
 10
665984.3020
 20
5915364.2123
 30
0.0000
 40
2.0000
  1
60.01
 50
0.00
  0
TEXT
  8
POINT_CODE
 10
665984.3020
 20
5915361.4623
 30
0.0000
 40
1.7500
  1
COR
 50
0.00
  0
POINT
  8
POINTS
 10
666183.0960
 20
5915374.4701
 30
70.0000
  0
TEXT
  8
POINT_NO
 10
666184.5960
 20
5915375.4701
 30
0.0000
 40
2.5000
  1
2
 50
0.00
  0
TEXT
  8
POINT_ELEV
 10
666184.5960
 20
5915371.2201
 30
0.0000
 40
2.0000
  1
70.00
 50
0.00
  0
TEXT
  8
POINT_CODE
 10
666184.5960
 20
5915368.4701
 30
0.0000
 40
1.7500
  1
COR
 50
0.00
  0
POINT
  8
POINTS
 10
666176.1039
 20
5915574.2892
 30
69.9990
  0
TEXT
  8
POINT_NO
 10
666177.6039
 20
5915575.2892
 30
0.0000
 40
2.5000
  1
3
 50
0.00
  0
TEXT
  8
POINT_ELEV
 10
666177.6039
 20
5915571.0392
 30
0.0000
 40
2.0000
  1
70.00
 50
0.00
  0
TEXT
  8
POINT_CODE
 10
666177.6039
 20
5915568.2892
 30
0.0000
 40
1.7500
  1
COR
 50
0.00
  0
POINT
  8
POINTS
 10
665975.8173
 20
5915567.2826
 30
60.0020
  0
TEXT
  8
POINT_NO
 10
665977.3173
 20
5915568.2826
 30
0.0000
 40
2.5000
  1
4
 50
0.00
  0
TEXT
  8
POINT_ELEV
 10
665977.3173
 20
5915564.0326
 30
0.0000
 40
2.0000
  1
60.00
 50
0.00
  0
TEXT
  8
POINT_CODE
 10
665977.3173
 20
5915561.2826
 30
0.0000
 40
1.7500
  1
COR
 50
0.00
  0
POINT
  8
POINTS
 10
666007.8390
 20
5915368.3387
 30
61.2570
  0
TEXT
  8
POINT_NO
 10
666009.3390
 20
5915369.3387
 30
0.0000
 40
2.5000
  1
5
 50
0.00
  0
TEXT
  8
POINT_ELEV
 10
666009.3390
 20
5915365.0887
 30
0.0000
 40
2.0000
  1
61.26
 50
0.00
  0
TEXT
  8
POINT_CODE
 10
666009.3390
 20
5915362.3387
 30
0.0000
 40
1.7500
  1
FNC
 50
0.00
  0
POINT
  8
POINTS
 10
666000.8530
 20
5915568.1515
 30
61.2230
  0
TEXT
  8
POINT_NO
 10
666002.3530
 20
5915569.1515
 30
0.0000
 40
2.5000
  1
6
 50
0.00
  0
TEXT
  8
POINT_ELEV
 10
666002.3530
 20
5915564.9015
 30
0.0000
 40
2.0000
  1
61.22
 50
0.00
  0
TEXT
  8
POINT_CODE
 10
666002.3530
 20
5915562.1515
 30
0.0000
 40
1.7500
  1
FNC
 50
0.00
  0
POINT
  8
POINTS
 10
666032.8727
 20
5915369.2125
 30
62.5060
  0
TEXT
  8
POINT_NO
 10
666034.3727
 20
5915370.2125
 30
0.0000
 40
2.5000
  1
7
 50
0.00
  0
TEXT
  8
POINT_ELEV
 10
666034.3727
 20
5915365.9625
 30
0.0000
 40
2.0000
  1
62.51
 50
0.00
  0
TEXT
  8
POINT_CODE
 10
666034.3727
 20
5915363.2125
 30
0.0000
 40
1.7500
  1
FNC
 50
0.00
  0
POINT
  8
POINTS
 10
666025.8893
 20
5915569.0313
 30
62.4200
  0
TEXT
  8
POINT_NO
 10
666027.3893
 20
5915570.0313
 30
0.0000
 40
2.5000
  1
8
 50
0.00
  0
TEXT
  8
POINT_ELEV
 10
666027.3893
 20
5915565.7813
 30
0.0000
 40
2.0000
  1
62.42
 50
0.00
  0
TEXT
  8
POINT_CODE
 10
666027.3893
 20
5915563.0313
 30
0.0000
 40
1.7500
  1
FNC
 50
0.00
  0
POINT
  8
POINTS
 10
666057.9130
 20
5915370.0881
 30
63.7780
  0
TEXT
  8
POINT_NO
 10
666059.4130
 20
5915371.0881
 30
0.0000
 40
2.5000
  1
9
 50
0.00
  0
TEXT
  8
POINT_ELEV
 10
666059.4130
 20
5915366.8381
 30
0.0000
 40
2.0000
  1
63.78
 50
0.00
  0
TEXT
  8
POINT_CODE
 10
666059.4130
 20
5915364.0881
 30
0.0000
 40
1.7500
  1
FNC
 50
0.00
  0
POINT
  8
POINTS
 10
666050.9252
 20
5915569.9087
 30
63.6800
  0
TEXT
  8
POINT_NO
 10
666052.4252
 20
5915570.9087
 30
0.0000
 40
2.5000
  1
10
 50
0.00
  0
TEXT
  8
POINT_ELEV
 10
666052.4252
 20
5915566.6587
 30
0.0000
 40
2.0000
  1
63.68
 50
0.00
  0
TEXT
  8
POINT_CODE
 10
666052.4252
 20
5915563.9087
 30
0.0000
 40
1.7500
  1
FNC
 50
0.00
  0
POINT
  8
POINTS
 10
666082.9516
 20
5915370.9652
 30
65.0730
  0
TEXT
  8
POINT_NO
 10
666084.4516
 20
5915371.9652
 30
0.0000
 40
2.5000
  1
11
 50
0.00
  0
TEXT
  8
POINT_ELEV
 10
666084.4516
 20
5915367.7152
 30
0.0000
 40
2.0000
  1
65.07
 50
0.00
  0
TEXT
  8
POINT_CODE
 10
666084.4516
 20
5915364.9652
 30
0.0000
 40
1.7500
  1
FNC
 50
0.00
  0
POINT
  8
POINTS
 10
666075.9624
 20
5915570.7807
 30
64.9810
  0
TEXT
  8
POINT_NO
 10
666077.4624
 20
5915571.7807
 30
0.0000
 40
2.5000
  1
12
 50
0.00
  0
TEXT
  8
POINT_ELEV
 10
666077.4624
 20
5915567.5307
 30
0.0000
 40
2.0000
  1
64.98
 50
0.00
  0
TEXT
  8
POINT_CODE
 10
666077.4624
 20
5915564.7807
 30
0.0000
 40
1.7500
  1
FNC
 50
0.00
  0
POINT
  8
POINTS
 10
666107.9906
 20
5915371.8400
 30
66.3340
  0
TEXT
  8
POINT_NO
 10
666109.4906
 20
5915372.8400
 30
0.0000
 40
2.5000
  1
13
 50
0.00
  0
TEXT
  8
POINT_ELEV
 10
666109.4906
 20
5915368.5900
 30
0.0000
 40
2.0000
  1
66.33
 50
0.00
  0
TEXT
  8
POINT_CODE
 10
666109.4906
 20
5915365.8400
 30
0.0000
 40
1.7500
  1
FNC
 50
0.00
  0
POINT
  8
POINTS
 10
666100.9969
 20
5915571.6559
 30
66.2480
  0
TEXT
  8
POINT_NO
 10
666102.4969
 20
5915572.6559
 30
0.0000
 40
2.5000
  1
14
 50
0.00
  0
TEXT
  8
POINT_ELEV
 10
666102.4969
 20
5915568.4059
 30
0.0000
 40
2.0000
  1
66.25
 50
0.00
  0
TEXT
  8
POINT_CODE
 10
666102.4969
 20
5915565.6559
 30
0.0000
 40
1.7500
  1
FNC
 50
0.00
  0
POINT
  8
POINTS
 10
666133.0248
 20
5915372.7139
 30
67.5510
  0
TEXT
  8
POINT_NO
 10
666134.5248
 20
5915373.7139
 30
0.0000
 40
2.5000
  1
15
 50
0.00
  0
TEXT
  8
POINT_ELEV
 10
666134.5248
 20
5915369.4639
 30
0.0000
 40
2.0000
  1
67.55
 50
0.00
  0
TEXT
  8
POINT_CODE
 10
666134.5248
 20
5915366.7139
 30
0.0000
 40
1.7500
  1
FNC
 50
0.00
  0
POINT
  8
POINTS
 10
666126.0350
 20
5915572.5323
 30
67.5020
  0
TEXT
  8
POINT_NO
 10
666127.5350
 20
5915573.5323
 30
0.0000
 40
2.5000
  1
16
 50
0.00
  0
TEXT
  8
POINT_ELEV
 10
666127.5350
 20
5915569.2823
 30
0.0000
 40
2.0000
  1
67.50
 50
0.00
  0
TEXT
  8
POINT_CODE
 10
666127.5350
 20
5915566.5323
 30
0.0000
 40
1.7500
  1
FNC
 50
0.00
  0
POINT
  8
POINTS
 10
666158.0628
 20
5915373.5922
 30
68.7710
  0
TEXT
  8
POINT_NO
 10
666159.5628
 20
5915374.5922
 30
0.0000
 40
2.5000
  1
17
 50
0.00
  0
TEXT
  8
POINT_ELEV
 10
666159.5628
 20
5915370.3422
 30
0.0000
 40
2.0000
  1
68.77
 50
0.00
  0
TEXT
  8
POINT_CODE
 10
666159.5628
 20
5915367.5922
 30
0.0000
 40
1.7500
  1
FNC
 50
0.00
  0
POINT
  8
POINTS
 10
666151.0684
 20
5915573.4112
 30
68.7570
  0
TEXT
  8
POINT_NO
 10
666152.5684
 20
5915574.4112
 30
0.0000
 40
2.5000
  1
18
 50
0.00
  0
TEXT
  8
POINT_ELEV
 10
666152.5684
 20
5915570.1612
 30
0.0000
 40
2.0000
  1
68.76
 50
0.00
  0
TEXT
  8
POINT_CODE
 10
666152.5684
 20
5915567.4112
 30
0.0000
 40
1.7500
  1
FNC
 50
0.00
  0
POINT
  8
POINTS
 10
665981.9255
 20
5915392.4407
 30
59.9930
  0
TEXT
  8
POINT_NO
 10
665983.4255
 20
5915393.4407
 30
0.0000
 40
2.5000
  1
19
 50
0.00
  0
TEXT
  8
POINT_ELEV
 10
665983.4255
 20
5915389.1907
 30
0.0000
 40
2.0000
  1
59.99
 50
0.00
  0
TEXT
  8
POINT_CODE
 10
665983.4255
 20
5915386.4407
 30
0.0000
 40
1.7500
  1
FNC
 50
0.00
  0
POINT
  8
POINTS
 10
666182.2234
 20
5915399.4468
 30
70.0190
  0
TEXT
  8
POINT_NO
 10
666183.7234
 20
5915400.4468
 30
0.0000
 40
2.5000
  1
20
 50
0.00
  0
TEXT
  8
POINT_ELEV
 10
666183.7234
 20
5915396.1968
 30
0.0000
 40
2.0000
  1
70.02
 50
0.00
  0
TEXT
  8
POINT_CODE
 10
666183.7234
 20
5915393.4468
 30
0.0000
 40
1.7500
  1
FNC
 50
0.00
  0
POINT
  8
POINTS
 10
665981.0563
 20
5915417.4193
 30
60.0000
  0
TEXT
  8
POINT_NO
 10
665982.5563
 20
5915418.4193
 30
0.0000
 40
2.5000
  1
21
 50
0.00
  0
TEXT
  8
POINT_ELEV
 10
665982.5563
 20
5915414.1693
 30
0.0000
 40
2.0000
  1
60.00
 50
0.00
  0
TEXT
  8
POINT_CODE
 10
665982.5563
 20
5915411.4193
 30
0.0000
 40
1.7500
  1
FNC
 50
0.00
  0
POINT
  8
POINTS
 10
666181.3500
 20
5915424.4219
 30
70.0550
  0
TEXT
  8
POINT_NO
 10
666182.8500
 20
5915425.4219
 30
0.0000
 40
2.5000
  1
22
 50
0.00
  0
TEXT
  8
POINT_ELEV
 10
666182.8500
 20
5915421.1719
 30
0.0000
 40
2.0000
  1
70.06
 50
0.00
  0
TEXT
  8
POINT_CODE
 10
666182.8500
 20
5915418.4219
 30
0.0000
 40
1.7500
  1
FNC
 50
0.00
  0
POINT
  8
POINTS
 10
665980.1824
 20
5915442.3948
 30
59.9940
  0
TEXT
  8
POINT_NO
 10
665981.6824
 20
5915443.3948
 30
0.0000
 40
2.5000
  1
23
 50
0.00
  0
TEXT
  8
POINT_ELEV
 10
665981.6824
 20
5915439.1448
 30
0.0000
 40
2.0000
  1
59.99
 50
0.00
  0
TEXT
  8
POINT_CODE
 10
665981.6824
 20
5915436.3948
 30
0.0000
 40
1.7500
  1
FNC
 50
0.00
  0
POINT
  8
POINTS
 10
666180.4729
 20
5915449.3981
 30
70.0870
  0
TEXT
  8
POINT_NO
 10
666181.9729
 20
5915450.3981
 30
0.0000
 40
2.5000
  1
24
 50
0.00
  0
TEXT
  8
POINT_ELEV
 10
666181.9729
 20
5915446.1481
 30
0.0000
 40
2.0000
  1
70.09
 50
0.00
  0
TEXT
  8
POINT_CODE
 10
666181.9729
 20
5915443.3981
 30
0.0000
 40
1.7500
  1
FNC
 50
0.00
  0
POINT
  8
POINTS
 10
665979.3097
 20
5915467.3749
 30
59.9760
  0
TEXT
  8
POINT_NO
 10
665980.8097
 20
5915468.3749
 30
0.0000
 40
2.5000
  1
25
 50
0.00
  0
TEXT
  8
POINT_ELEV
 10
665980.8097
 20
5915464.1249
 30
0.0000
 40
2.0000
  1
59.98
 50
0.00
  0
TEXT
  8
POINT_CODE
 10
665980.8097
 20
5915461.3749
 30
0.0000
 40
1.7500
  1
FNC
 50
0.00
  0
POINT
  8
POINTS
 10
666179.6047
 20
5915474.3757
 30
70.0650
  0
TEXT
  8
POINT_NO
 10
666181.1047
 20
5915475.3757
 30
0.0000
 40
2.5000
  1
26
 50
0.00
  0
TEXT
  8
POINT_ELEV
 10
666181.1047
 20
5915471.1257
 30
0.0000
 40
2.0000
  1
70.06
 50
0.00
  0
TEXT
  8
POINT_CODE
 10
666181.1047
 20
5915468.3757
 30
0.0000
 40
1.7500
  1
FNC
 50
0.00
  0
POINT
  8
POINTS
 10
665978.4397
 20
5915492.3468
 30
59.9260
  0
TEXT
  8
POINT_NO
 10
665979.9397
 20
5915493.3468
 30
0.0000
 40
2.5000
  1
27
 50
0.00
  0
TEXT
  8
POINT_ELEV
 10
665979.9397
 20
5915489.0968
 30
0.0000
 40
2.0000
  1
59.93
 50
0.00
  0
TEXT
  8
POINT_CODE
 10
665979.9397
 20
5915486.3468
 30
0.0000
 40
1.7500
  1
FNC
 50
0.00
  0
POINT
  8
POINTS
 10
666178.7280
 20
5915499.3560
 30
70.0280
  0
TEXT
  8
POINT_NO
 10
666180.2280
 20
5915500.3560
 30
0.0000
 40
2.5000
  1
28
 50
0.00
  0
TEXT
  8
POINT_ELEV
 10
666180.2280
 20
5915496.1060
 30
0.0000
 40
2.0000
  1
70.03
 50
0.00
  0
TEXT
  8
POINT_CODE
 10
666180.2280
 20
5915493.3560
 30
0.0000
 40
1.7500
  1
FNC
 50
0.00
  0
POINT
  8
POINTS
 10
665977.5640
 20
5915517.3256
 30
59.9240
  0
TEXT
  8
POINT_NO
 10
665979.0640
 20
5915518.3256
 30
0.0000
 40
2.5000
  1
29
 50
0.00
  0
TEXT
  8
POINT_ELEV
 10
665979.0640
 20
5915514.0756
 30
0.0000
 40
2.0000
  1
59.92
 50
0.00
  0
TEXT
  8
POINT_CODE
 10
665979.0640
 20
5915511.3256
 30
0.0000
 40
1.7500
  1
FNC
 50
0.00
  0
POINT
  8
POINTS
 10
666177.8562
 20
5915524.3287
 30
69.9990
  0
TEXT
  8
POINT_NO
 10
666179.3562
 20
5915525.3287
 30
0.0000
 40
2.5000
  1
30
 50
0.00
  0
TEXT
  8
POINT_ELEV
 10
666179.3562
 20
5915521.0787
 30
0.0000
 40
2.0000
  1
70.00
 50
0.00
  0
TEXT
  8
POINT_CODE
 10
666179.3562
 20
5915518.3287
 30
0.0000
 40
1.7500
  1
FNC
 50
0.00
  0
POINT
  8
POINTS
 10
665976.6933
 20
5915542.3012
 30
59.9710
  0
TEXT
  8
POINT_NO
 10
665978.1933
 20
5915543.3012
 30
0.0000
 40
2.5000
  1
31
 50
0.00
  0
TEXT
  8
POINT_ELEV
 10
665978.1933
 20
5915539.0512
 30
0.0000
 40
2.0000
  1
59.97
 50
0.00
  0
TEXT
  8
POINT_CODE
 10
665978.1933
 20
5915536.3012
 30
0.0000
 40
1.7500
  1
FNC
 50
0.00
  0
POINT
  8
POINTS
 10
666176.9820
 20
5915549.3134
 30
69.9940
  0
TEXT
  8
POINT_NO
 10
666178.4820
 20
5915550.3134
 30
0.0000
 40
2.5000
  1
32
 50
0.00
  0
TEXT
  8
POINT_ELEV
 10
666178.4820
 20
5915546.0634
 30
0.0000
 40
2.0000
  1
69.99
 50
0.00
  0
TEXT
  8
POINT_CODE
 10
666178.4820
 20
5915543.3134
 30
0.0000
 40
1.7500
  1
FNC
 50
0.00
  0
POINT
  8
POINTS
 10
666031.1284
 20
5915419.1677
 30
62.6160
  0
TEXT
  8
POINT_NO
 10
666032.6284
 20
5915420.1677
 30
0.0000
 40
2.5000
  1
33
 50
0.00
  0
TEXT
  8
POINT_ELEV
 10
666032.6284
 20
5915415.9177
 30
0.0000
 40
2.0000
  1
62.62
 50
0.00
  0
TEXT
  8
POINT_CODE
 10
666032.6284
 20
5915413.1677
 30
0.0000
 40
1.7500
  1
PT
 50
0.00
  0
POINT
  8
POINTS
 10
666029.3818
 20
5915469.1195
 30
62.2690
  0
TEXT
  8
POINT_NO
 10
666030.8818
 20
5915470.1195
 30
0.0000
 40
2.5000
  1
34
 50
0.00
  0
TEXT
  8
POINT_ELEV
 10
666030.8818
 20
5915465.8695
 30
0.0000
 40
2.0000
  1
62.27
 50
0.00
  0
TEXT
  8
POINT_CODE
 10
666030.8818
 20
5915463.1195
 30
0.0000
 40
1.7500
  1
PT
 50
0.00
  0
POINT
  8
POINTS
 10
666027.6341
 20
5915519.0709
 30
61.2400
  0
TEXT
  8
POINT_NO
 10
666029.1341
 20
5915520.0709
 30
0.0000
 40
2.5000
  1
35
 50
0.00
  0
TEXT
  8
POINT_ELEV
 10
666029.1341
 20
5915515.8209
 30
0.0000
 40
2.0000
  1
61.24
 50
0.00
  0
TEXT
  8
POINT_CODE
 10
666029.1341
 20
5915513.0709
 30
0.0000
 40
1.7500
  1
PT
 50
0.00
  0
POINT
  8
POINTS
 10
666081.2015
 20
5915420.9188
 30
66.4560
  0
TEXT
  8
POINT_NO
 10
666082.7015
 20
5915421.9188
 30
0.0000
 40
2.5000
  1
36
 50
0.00
  0
TEXT
  8
POINT_ELEV
 10
666082.7015
 20
5915417.6688
 30
0.0000
 40
2.0000
  1
66.46
 50
0.00
  0
TEXT
  8
POINT_CODE
 10
666082.7015
 20
5915414.9188
 30
0.0000
 40
1.7500
  1
PT
 50
0.00
  0
POINT
  8
POINTS
 10
666079.4587
 20
5915470.8726
 30
66.8140
  0
TEXT
  8
POINT_NO
 10
666080.9587
 20
5915471.8726
 30
0.0000
 40
2.5000
  1
37
 50
0.00
  0
TEXT
  8
POINT_ELEV
 10
666080.9587
 20
5915467.6226
 30
0.0000
 40
2.0000
  1
66.81
 50
0.00
  0
TEXT
  8
POINT_CODE
 10
666080.9587
 20
5915464.8726
 30
0.0000
 40
1.7500
  1
PT
 50
0.00
  0
POINT
  8
POINTS
 10
666077.7087
 20
5915520.8232
 30
64.7790
  0
TEXT
  8
POINT_NO
 10
666079.2087
 20
5915521.8232
 30
0.0000
 40
2.5000
  1
38
 50
0.00
  0
TEXT
  8
POINT_ELEV
 10
666079.2087
 20
5915517.5732
 30
0.0000
 40
2.0000
  1
64.78
 50
0.00
  0
TEXT
  8
POINT_CODE
 10
666079.2087
 20
5915514.8232
 30
0.0000
 40
1.7500
  1
PT
 50
0.00
  0
POINT
  8
POINTS
 10
666131.2772
 20
5915422.6720
 30
68.5940
  0
TEXT
  8
POINT_NO
 10
666132.7772
 20
5915423.6720
 30
0.0000
 40
2.5000
  1
39
 50
0.00
  0
TEXT
  8
POINT_ELEV
 10
666132.7772
 20
5915419.4220
 30
0.0000
 40
2.0000
  1
68.59
 50
0.00
  0
TEXT
  8
POINT_CODE
 10
666132.7772
 20
5915416.6720
 30
0.0000
 40
1.7500
  1
PT
 50
0.00
  0
POINT
  8
POINTS
 10
666129.5288
 20
5915472.6305
 30
68.9550
  0
TEXT
  8
POINT_NO
 10
666131.0288
 20
5915473.6305
 30
0.0000
 40
2.5000
  1
40
 50
0.00
  0
TEXT
  8
POINT_ELEV
 10
666131.0288
 20
5915469.3805
 30
0.0000
 40
2.0000
  1
68.95
 50
0.00
  0
TEXT
  8
POINT_CODE
 10
666131.0288
 20
5915466.6305
 30
0.0000
 40
1.7500
  1
PT
 50
0.00
  0
POINT
  8
POINTS
 10
666127.7753
 20
5915522.5780
 30
67.6230
  0
TEXT
  8
POINT_NO
 10
666129.2753
 20
5915523.5780
 30
0.0000
 40
2.5000
  1
41
 50
0.00
  0
TEXT
  8
POINT_ELEV
 10
666129.2753
 20
5915519.3280
 30
0.0000
 40
2.0000
  1
67.62
 50
0.00
  0
TEXT
  8
POINT_CODE
 10
666129.2753
 20
5915516.5780
 30
0.0000
 40
1.7500
  1
PT
 50
0.00
  0
POINT
  8
POINTS
 10
666070.8380
 20
5915430.5593
 30
65.9590
  0
TEXT
  8
POINT_NO
 10
666072.3380
 20
5915431.5593
 30
0.0000
 40
2.5000
  1
42
 50
0.00
  0
TEXT
  8
POINT_ELEV
 10
666072.3380
 20
5915427.3093
 30
0.0000
 40
2.0000
  1
65.96
 50
0.00
  0
TEXT
  8
POINT_CODE
 10
666072.3380
 20
5915424.5593
 30
0.0000
 40
1.7500
  1
BLD
 50
0.00
  0
POINT
  8
POINTS
 10
666090.8662
 20
5915431.2572
 30
67.7730
  0
TEXT
  8
POINT_NO
 10
666092.3662
 20
5915432.2572
 30
0.0000
 40
2.5000
  1
43
 50
0.00
  0
TEXT
  8
POINT_ELEV
 10
666092.3662
 20
5915428.0072
 30
0.0000
 40
2.0000
  1
67.77
 50
0.00
  0
TEXT
  8
POINT_CODE
 10
666092.3662
 20
5915425.2572
 30
0.0000
 40
1.7500
  1
BLD
 50
0.00
  0
POINT
  8
POINTS
 10
666089.9966
 20
5915456.2381
 30
68.2750
  0
TEXT
  8
POINT_NO
 10
666091.4966
 20
5915457.2381
 30
0.0000
 40
2.5000
  1
44
 50
0.00
  0
TEXT
  8
POINT_ELEV
 10
666091.4966
 20
5915452.9881
 30
0.0000
 40
2.0000
  1
68.28
 50
0.00
  0
TEXT
  8
POINT_CODE
 10
666091.4966
 20
5915450.2381
 30
0.0000
 40
1.7500
  1
BLD
 50
0.00
  0
POINT
  8
POINTS
 10
666069.9659
 20
5915455.5375
 30
66.2330
  0
TEXT
  8
POINT_NO
 10
666071.4659
 20
5915456.5375
 30
0.0000
 40
2.5000
  1
45
 50
0.00
  0
TEXT
  8
POINT_ELEV
 10
666071.4659
 20
5915452.2875
 30
0.0000
 40
2.0000
  1
66.23
 50
0.00
  0
TEXT
  8
POINT_CODE
 10
666071.4659
 20
5915449.5375
 30
0.0000
 40
1.7500
  1
BLD
 50
0.00
  0
POINT
  8
POINTS
 10
666118.1193
 20
5915512.2387
 30
67.3140
  0
TEXT
  8
POINT_NO
 10
666119.6193
 20
5915513.2387
 30
0.0000
 40
2.5000
  1
46
 50
0.00
  0
TEXT
  8
POINT_ELEV
 10
666119.6193
 20
5915508.9887
 30
0.0000
 40
2.0000
  1
67.31
 50
0.00
  0
TEXT
  8
POINT_CODE
 10
666119.6193
 20
5915506.2387
 30
0.0000
 40
1.7500
  1
TRE
 50
0.00
  0
POINT
  8
POINTS
 10
666148.8596
 20
5915493.3050
 30
68.8050
  0
TEXT
  8
POINT_NO
 10
666150.3596
 20
5915494.3050
 30
0.0000
 40
2.5000
  1
47
 50
0.00
  0
TEXT
  8
POINT_ELEV
 10
666150.3596
 20
5915490.0550
 30
0.0000
 40
2.0000
  1
68.81
 50
0.00
  0
TEXT
  8
POINT_CODE
 10
666150.3596
 20
5915487.3050
 30
0.0000
 40
1.7500
  1
TRE
 50
0.00
  0
POINT
  8
POINTS
 10
666009.3594
 20
5915468.4250
 30
61.3220
  0
TEXT
  8
POINT_NO
 10
666010.8594
 20
5915469.4250
 30
0.0000
 40
2.5000
  1
48
 50
0.00
  0
TEXT
  8
POINT_ELEV
 10
666010.8594
 20
5915465.1750
 30
0.0000
 40
2.0000
  1
61.32
 50
0.00
  0
TEXT
  8
POINT_CODE
 10
666010.8594
 20
5915462.4250
 30
0.0000
 40
1.7500
  1
TRE
 50
0.00
  0
POINT
  8
POINTS
 10
666037.9986
 20
5915509.4352
 30
61.5570
  0
TEXT
  8
POINT_NO
 10
666039.4986
 20
5915510.4352
 30
0.0000
 40
2.5000
  1
49
 50
0.00
  0
TEXT
  8
POINT_ELEV
 10
666039.4986
 20
5915506.1852
 30
0.0000
 40
2.0000
  1
61.56
 50
0.00
  0
TEXT
  8
POINT_CODE
 10
666039.4986
 20
5915503.4352
 30
0.0000
 40
1.7500
  1
TRE
 50
0.00
  0
POLYLINE
  8
CONTOUR_MAJOR
 66
1
 10
0.0
 20
0.0
 30
60.0000
 70
0
  0
VERTEX
  8
CONTOUR_MAJOR
 10
665981.0563
 20
5915417.4193
 30
60.0000
  0
VERTEX
  8
CONTOUR_MAJOR
 10
665982.0568
 20
5915392.5120
 30
60.0000
  0
VERTEX
  8
CONTOUR_MAJOR
 10
665982.0690
 20
5915392.3072
 30
60.0000
  0
VERTEX
  8
CONTOUR_MAJOR
 10
665982.3089
 20
5915381.5126
 30
60.0000
  0
SEQEND
  8
CONTOUR_MAJOR
  0
TEXT
  8
CONTOUR_LABEL
 10
665982.0690
 20
5915392.3072
 30
60.0000
 40
2.2500
  1
60
 50
0.00
  0
POLYLINE
  8
CONTOUR_MAJOR
 66
1
 10
0.0
 20
0.0
 30
60.0000
 70
0
  0
VERTEX
  8
CONTOUR_MAJOR
 10
665975.8739
 20
5915565.6709
 30
60.0000
  0
VERTEX
  8
CONTOUR_MAJOR
 10
665977.2529
 20
5915542.8999
 30
60.0000
  0
VERTEX
  8
CONTOUR_MAJOR
 10
665977.8574
 20
5915541.7703
 30
60.0000
  0
VERTEX
  8
CONTOUR_MAJOR
 10
665980.4556
 20
5915517.4264
 30
60.0000
  0
VERTEX
  8
CONTOUR_MAJOR
 10
665981.2101
 20
5915493.8518
 30
60.0000
  0
VERTEX
  8
CONTOUR_MAJOR
 10
665980.0787
 20
5915491.0788
 30
60.0000
  0
VERTEX
  8
CONTOUR_MAJOR
 10
665979.8455
 20
5915467.3936
 30
60.0000
  0
VERTEX
  8
CONTOUR_MAJOR
 10
665980.3143
 20
5915442.5124
 30
60.0000
  0
VERTEX
  8
CONTOUR_MAJOR
 10
665980.2990
 20
5915442.3417
 30
60.0000
  0
VERTEX
  8
CONTOUR_MAJOR
 10
665981.0563
 20
5915417.4193
 30
60.0000
  0
SEQEND
  8
CONTOUR_MAJOR
  0
TEXT
  8
CONTOUR_LABEL
 10
665980.0787
 20
5915491.0788
 30
60.0000
 40
2.2500
  1
60
 50
0.00
  0
POLYLINE
  8
CONTOUR_MINOR
 66
1
 10
0.0
 20
0.0
 30
61.0000
 70
0
  0
VERTEX
  8
CONTOUR_MINOR
 10
665996.2806
 20
5915567.9928
 30
61.0000
  0
VERTEX
  8
CONTOUR_MINOR
 10
665996.5498
 20
5915563.5471
 30
61.0000
  0
VERTEX
  8
CONTOUR_MINOR
 10
666017.9999
 20
5915523.4643
 30
61.0000
  0
VERTEX
  8
CONTOUR_MINOR
 10
666018.5027
 20
5915518.7526
 30
61.0000
  0
VERTEX
  8
CONTOUR_MINOR
 10
666018.6488
 20
5915514.1898
 30
61.0000
  0
VERTEX
  8
CONTOUR_MINOR
 10
666002.2275
 20
5915473.9427
 30
61.0000
  0
VERTEX
  8
CONTOUR_MINOR
 10
666002.1707
 20
5915468.1738
 30
61.0000
  0
VERTEX
  8
CONTOUR_MINOR
 10
666002.2849
 20
5915462.1134
 30
61.0000
  0
VERTEX
  8
CONTOUR_MINOR
 10
665999.7292
 20
5915433.4831
 30
61.0000
  0
VERTEX
  8
CONTOUR_MINOR
 10
666000.1971
 20
5915418.0877
 30
61.0000
  0
VERTEX
  8
CONTOUR_MINOR
 10
666000.8151
 20
5915402.7015
 30
61.0000
  0
VERTEX
  8
CONTOUR_MINOR
 10
666002.5702
 20
5915373.2392
 30
61.0000
  0
VERTEX
  8
CONTOUR_MINOR
 10
666002.6831
 20
5915368.1582
 30
61.0000
  0
SEQEND
  8
CONTOUR_MINOR
  0
POLYLINE
  8
CONTOUR_MINOR
 66
1
 10
0.0
 20
0.0
 30
62.0000
 70
0
  0
VERTEX
  8
CONTOUR_MINOR
 10
666017.1047
 20
5915568.7226
 30
62.0000
  0
VERTEX
  8
CONTOUR_MINOR
 10
666026.5103
 20
5915551.2488
 30
62.0000
  0
VERTEX
  8
CONTOUR_MINOR
 10
666034.8887
 20
5915534.9056
 30
62.0000
  0
VERTEX
  8
CONTOUR_MINOR
 10
666038.3876
 20
5915519.4472
 30
62.0000
  0
VERTEX
  8
CONTOUR_MINOR
 10
666043.4585
 20
5915511.0010
 30
62.0000
  0
VERTEX
  8
CONTOUR_MINOR
 10
666041.4924
 20
5915506.1856
 30
62.0000
  0
VERTEX
  8
CONTOUR_MINOR
 10
666032.6373
 20
5915484.3511
 30
62.0000
  0
VERTEX
  8
CONTOUR_MINOR
 10
666023.6943
 20
5915468.9222
 30
62.0000
  0
VERTEX
  8
CONTOUR_MINOR
 10
666020.7654
 20
5915442.6163
 30
62.0000
  0
VERTEX
  8
CONTOUR_MINOR
 10
666019.1594
 20
5915424.6245
 30
62.0000
  0
VERTEX
  8
CONTOUR_MINOR
 10
666019.3378
 20
5915418.7560
 30
62.0000
  0
VERTEX
  8
CONTOUR_MINOR
 10
666019.5733
 20
5915412.8910
 30
62.0000
  0
VERTEX
  8
CONTOUR_MINOR
 10
666020.5719
 20
5915396.1282
 30
62.0000
  0
VERTEX
  8
CONTOUR_MINOR
 10
666022.7309
 20
5915368.8585
 30
62.0000
  0
SEQEND
  8
CONTOUR_MINOR
  0
POLYLINE
  8
CONTOUR_MINOR
 66
1
 10
0.0
 20
0.0
 30
63.0000
 70
0
  0
VERTEX
  8
CONTOUR_MINOR
 10
666037.4138
 20
5915569.4352
 30
63.0000
  0
VERTEX
  8
CONTOUR_MINOR
 10
666044.4343
 20
5915555.7408
 30
63.0000
  0
VERTEX
  8
CONTOUR_MINOR
 10
666052.5370
 20
5915519.9423
 30
63.0000
  0
VERTEX
  8
CONTOUR_MINOR
 10
666055.7831
 20
5915514.5354
 30
63.0000
  0
VERTEX
  8
CONTOUR_MINOR
 10
666049.3791
 20
5915498.8501
 30
63.0000
  0
VERTEX
  8
CONTOUR_MINOR
 10
666037.4360
 20
5915469.4014
 30
63.0000
  0
VERTEX
  8
CONTOUR_MINOR
 10
666036.8659
 20
5915466.6148
 30
63.0000
  0
VERTEX
  8
CONTOUR_MINOR
 10
666035.2516
 20
5915423.0289
 30
63.0000
  0
VERTEX
  8
CONTOUR_MINOR
 10
666035.6898
 20
5915420.4762
 30
63.0000
  0
VERTEX
  8
CONTOUR_MINOR
 10
666036.1357
 20
5915419.3428
 30
63.0000
  0
VERTEX
  8
CONTOUR_MINOR
 10
666039.9798
 20
5915402.9486
 30
63.0000
  0
VERTEX
  8
CONTOUR_MINOR
 10
666042.5975
 20
5915369.5525
 30
63.0000
  0
SEQEND
  8
CONTOUR_MINOR
  0
POLYLINE
  8
CONTOUR_MINOR
 66
1
 10
0.0
 20
0.0
 30
64.0000
 70
0
  0
VERTEX
  8
CONTOUR_MINOR
 10
666057.0835
 20
5915570.1232
 30
64.0000
  0
VERTEX
  8
CONTOUR_MINOR
 10
666058.7239
 20
5915555.6163
 30
64.0000
  0
VERTEX
  8
CONTOUR_MINOR
 10
666066.6863
 20
5915520.4375
 30
64.0000
  0
VERTEX
  8
CONTOUR_MINOR
 10
666068.1078
 20
5915518.0699
 30
64.0000
  0
VERTEX
  8
CONTOUR_MINOR
 10
666057.2657
 20
5915491.5147
 30
64.0000
  0
VERTEX
  8
CONTOUR_MINOR
 10
666048.4540
 20
5915469.7872
 30
64.0000
  0
VERTEX
  8
CONTOUR_MINOR
 10
666047.1041
 20
5915463.1885
 30
64.0000
  0
VERTEX
  8
CONTOUR_MINOR
 10
666045.9891
 20
5915433.0841
 30
64.0000
  0
VERTEX
  8
CONTOUR_MINOR
 10
666047.5682
 20
5915423.8838
 30
64.0000
  0
VERTEX
  8
CONTOUR_MINOR
 10
666049.1756
 20
5915419.7988
 30
64.0000
  0
VERTEX
  8
CONTOUR_MINOR
 10
666059.8436
 20
5915374.3018
 30
64.0000
  0
VERTEX
  8
CONTOUR_MINOR
 10
666062.2054
 20
5915370.2385
 30
64.0000
  0
SEQEND
  8
CONTOUR_MINOR
  0
POLYLINE
  8
CONTOUR_MAJOR
 66
1
 10
0.0
 20
0.0
 30
65.0000
 70
0
  0
VERTEX
  8
CONTOUR_MAJOR
 10
666076.3379
 20
5915570.7938
 30
65.0000
  0
VERTEX
  8
CONTOUR_MAJOR
 10
666081.2122
 20
5915528.4706
 30
65.0000
  0
VERTEX
  8
CONTOUR_MAJOR
 10
666081.5992
 20
5915520.9595
 30
65.0000
  0
VERTEX
  8
CONTOUR_MAJOR
 10
666081.2317
 20
5915520.0748
 30
65.0000
  0
VERTEX
  8
CONTOUR_MAJOR
 10
666077.8987
 20
5915515.3986
 30
65.0000
  0
VERTEX
  8
CONTOUR_MAJOR
 10
666065.1523
 20
5915484.1792
 30
65.0000
  0
VERTEX
  8
CONTOUR_MAJOR
 10
666059.4720
 20
5915470.1729
 30
65.0000
  0
VERTEX
  8
CONTOUR_MAJOR
 10
666057.3423
 20
5915459.7622
 30
65.0000
  0
VERTEX
  8
CONTOUR_MAJOR
 10
666056.7266
 20
5915443.1394
 30
65.0000
  0
VERTEX
  8
CONTOUR_MAJOR
 10
666059.4466
 20
5915427.2914
 30
65.0000
  0
VERTEX
  8
CONTOUR_MAJOR
 10
666062.2155
 20
5915420.2548
 30
65.0000
  0
VERTEX
  8
CONTOUR_MAJOR
 10
666068.5398
 20
5915393.2827
 30
65.0000
  0
VERTEX
  8
CONTOUR_MAJOR
 10
666081.5401
 20
5915370.9158
 30
65.0000
  0
SEQEND
  8
CONTOUR_MAJOR
  0
TEXT
  8
CONTOUR_LABEL
 10
666059.4720
 20
5915470.1729
 30
65.0000
 40
2.2500
  1
65
 50
0.00
  0
POLYLINE
  8
CONTOUR_MINOR
 66
1
 10
0.0
 20
0.0
 30
66.0000
 70
0
  0
VERTEX
  8
CONTOUR_MINOR
 10
666096.0967
 20
5915571.4846
 30
66.0000
  0
VERTEX
  8
CONTOUR_MINOR
 10
666097.0653
 20
5915563.0742
 30
66.0000
  0
VERTEX
  8
CONTOUR_MINOR
 10
666099.2035
 20
5915521.5766
 30
66.0000
  0
VERTEX
  8
CONTOUR_MINOR
 10
666097.1727
 20
5915516.6884
 30
66.0000
  0
VERTEX
  8
CONTOUR_MINOR
 10
666078.7587
 20
5915490.8528
 30
66.0000
  0
VERTEX
  8
CONTOUR_MINOR
 10
666073.0390
 20
5915476.8437
 30
66.0000
  0
VERTEX
  8
CONTOUR_MINOR
 10
666070.4900
 20
5915470.5586
 30
66.0000
  0
VERTEX
  8
CONTOUR_MINOR
 10
666067.5804
 20
5915456.3358
 30
66.0000
  0
VERTEX
  8
CONTOUR_MINOR
 10
666067.4641
 20
5915453.1946
 30
66.0000
  0
VERTEX
  8
CONTOUR_MINOR
 10
666070.7075
 20
5915434.2969
 30
66.0000
  0
VERTEX
  8
CONTOUR_MINOR
 10
666071.2907
 20
5915430.5751
 30
66.0000
  0
VERTEX
  8
CONTOUR_MINOR
 10
666071.6929
 20
5915429.7640
 30
66.0000
  0
VERTEX
  8
CONTOUR_MINOR
 10
666075.2553
 20
5915420.7109
 30
66.0000
  0
VERTEX
  8
CONTOUR_MINOR
 10
666077.2360
 20
5915412.2635
 30
66.0000
  0
VERTEX
  8
CONTOUR_MINOR
 10
666081.7785
 20
5915404.4482
 30
66.0000
  0
VERTEX
  8
CONTOUR_MINOR
 10
666101.3585
 20
5915371.6083
 30
66.0000
  0
SEQEND
  8
CONTOUR_MINOR
  0
POLYLINE
  8
CONTOUR_MINOR
 66
1
 10
0.0
 20
0.0
 30
67.0000
 70
0
  0
VERTEX
  8
CONTOUR_MINOR
 10
666116.0118
 20
5915572.1815
 30
67.0000
  0
VERTEX
  8
CONTOUR_MINOR
 10
666115.6422
 20
5915544.8147
 30
67.0000
  0
VERTEX
  8
CONTOUR_MINOR
 10
666116.8078
 20
5915522.1936
 30
67.0000
  0
VERTEX
  8
CONTOUR_MINOR
 10
666113.1138
 20
5915513.3021
 30
67.0000
  0
VERTEX
  8
CONTOUR_MINOR
 10
666093.8404
 20
5915486.2608
 30
67.0000
  0
VERTEX
  8
CONTOUR_MINOR
 10
666083.8085
 20
5915471.0253
 30
67.0000
  0
VERTEX
  8
CONTOUR_MINOR
 10
666080.8003
 20
5915469.0095
 30
67.0000
  0
VERTEX
  8
CONTOUR_MINOR
 10
666077.4897
 20
5915455.8007
 30
67.0000
  0
VERTEX
  8
CONTOUR_MINOR
 10
666080.3754
 20
5915443.4447
 30
67.0000
  0
VERTEX
  8
CONTOUR_MINOR
 10
666082.3316
 20
5915430.9598
 30
67.0000
  0
VERTEX
  8
CONTOUR_MINOR
 10
666085.1936
 20
5915425.1892
 30
67.0000
  0
VERTEX
  8
CONTOUR_MINOR
 10
666093.9429
 20
5915421.3649
 30
67.0000
  0
VERTEX
  8
CONTOUR_MINOR
 10
666114.8529
 20
5915386.8197
 30
67.0000
  0
VERTEX
  8
CONTOUR_MINOR
 10
666121.6905
 20
5915372.3182
 30
67.0000
  0
SEQEND
  8
CONTOUR_MINOR
  0
POLYLINE
  8
CONTOUR_MINOR
 66
1
 10
0.0
 20
0.0
 30
68.0000
 70
0
  0
VERTEX
  8
CONTOUR_MINOR
 10
666135.9686
 20
5915572.8811
 30
68.0000
  0
VERTEX
  8
CONTOUR_MINOR
 10
666135.5191
 20
5915539.4775
 30
68.0000
  0
VERTEX
  8
CONTOUR_MINOR
 10
666135.5994
 20
5915526.8290
 30
68.0000
  0
VERTEX
  8
CONTOUR_MINOR
 10
666135.7216
 20
5915522.8558
 30
68.0000
  0
VERTEX
  8
CONTOUR_MINOR
 10
666134.5001
 20
5915513.2413
 30
68.0000
  0
VERTEX
  8
CONTOUR_MINOR
 10
666132.2627
 20
5915503.5275
 30
68.0000
  0
VERTEX
  8
CONTOUR_MINOR
 10
666122.8889
 20
5915495.6810
 30
68.0000
  0
VERTEX
  8
CONTOUR_MINOR
 10
666107.1949
 20
5915471.8464
 30
68.0000
  0
VERTEX
  8
CONTOUR_MINOR
 10
666088.0131
 20
5915458.9927
 30
68.0000
  0
VERTEX
  8
CONTOUR_MINOR
 10
666087.2990
 20
5915456.1438
 30
68.0000
  0
VERTEX
  8
CONTOUR_MINOR
 10
666090.4730
 20
5915442.5534
 30
68.0000
  0
VERTEX
  8
CONTOUR_MINOR
 10
666102.0395
 20
5915428.8835
 30
68.0000
  0
VERTEX
  8
CONTOUR_MINOR
 10
666117.3647
 20
5915422.1849
 30
68.0000
  0
VERTEX
  8
CONTOUR_MINOR
 10
666125.1567
 20
5915409.3117
 30
68.0000
  0
VERTEX
  8
CONTOUR_MINOR
 10
666132.2725
 20
5915394.2203
 30
68.0000
  0
VERTEX
  8
CONTOUR_MINOR
 10
666142.2396
 20
5915373.0371
 30
68.0000
  0
SEQEND
  8
CONTOUR_MINOR
  0
POLYLINE
  8
CONTOUR_MINOR
 66
1
 10
0.0
 20
0.0
 30
69.0000
 70
0
  0
VERTEX
  8
CONTOUR_MINOR
 10
666155.9667
 20
5915573.5830
 30
69.0000
  0
VERTEX
  8
CONTOUR_MINOR
 10
666156.1590
 20
5915568.6773
 30
69.0000
  0
VERTEX
  8
CONTOUR_MINOR
 10
666156.3529
 20
5915538.1050
 30
69.0000
  0
VERTEX
  8
CONTOUR_MINOR
 10
666156.7994
 20
5915523.5926
 30
69.0000
  0
VERTEX
  8
CONTOUR_MINOR
 10
666153.5952
 20
5915498.3717
 30
69.0000
  0
VERTEX
  8
CONTOUR_MINOR
 10
666153.6219
 20
5915494.2698
 30
69.0000
  0
VERTEX
  8
CONTOUR_MINOR
 10
666153.6178
 20
5915490.3755
 30
69.0000
  0
VERTEX
  8
CONTOUR_MINOR
 10
666131.5589
 20
5915472.7013
 30
69.0000
  0
VERTEX
  8
CONTOUR_MINOR
 10
666131.5540
 20
5915471.7070
 30
69.0000
  0
VERTEX
  8
CONTOUR_MINOR
 10
666144.6552
 20
5915429.9398
 30
69.0000
  0
VERTEX
  8
CONTOUR_MINOR
 10
666145.1920
 20
5915423.1583
 30
69.0000
  0
VERTEX
  8
CONTOUR_MINOR
 10
666145.7924
 20
5915416.0548
 30
69.0000
  0
VERTEX
  8
CONTOUR_MINOR
 10
666162.4962
 20
5915378.3363
 30
69.0000
  0
VERTEX
  8
CONTOUR_MINOR
 10
666162.7273
 20
5915373.7558
 30
69.0000
  0
SEQEND
  8
CONTOUR_MINOR
  0
POLYLINE
  8
CONTOUR_MAJOR
 66
1
 10
0.0
 20
0.0
 30
70.0000
 70
0
  0
VERTEX
  8
CONTOUR_MAJOR
 10
666177.8862
 20
5915523.4675
 30
70.0000
  0
VERTEX
  8
CONTOUR_MAJOR
 10
666178.0441
 20
5915499.2175
 30
70.0000
  0
VERTEX
  8
CONTOUR_MAJOR
 10
666178.0186
 20
5915475.3522
 30
70.0000
  0
VERTEX
  8
CONTOUR_MAJOR
 10
666176.6723
 20
5915474.2735
 30
70.0000
  0
VERTEX
  8
CONTOUR_MAJOR
 10
666176.5575
 20
5915451.1836
 30
70.0000
  0
VERTEX
  8
CONTOUR_MAJOR
 10
666177.6061
 20
5915447.8407
 30
70.0000
  0
VERTEX
  8
CONTOUR_MAJOR
 10
666179.4650
 20
5915424.3561
 30
70.0000
  0
VERTEX
  8
CONTOUR_MAJOR
 10
666181.5442
 20
5915399.7564
 30
70.0000
  0
VERTEX
  8
CONTOUR_MAJOR
 10
666181.8556
 20
5915399.0531
 30
70.0000
  0
VERTEX
  8
CONTOUR_MAJOR
 10
666183.0960
 20
5915374.4701
 30
70.0000
  0
SEQEND
  8
CONTOUR_MAJOR
  0
TEXT
  8
CONTOUR_LABEL
 10
666177.6061
 20
5915447.8407
 30
70.0000
 40
2.2500
  1
70
 50
0.00
  0
POLYLINE
  8
BORDER
 66
1
 10
0.0
 20
0.0
 30
0.0000
 70
1
  0
VERTEX
  8
BORDER
 10
665938.4439
 20
5915330.0889
 30
0.0000
  0
VERTEX
  8
BORDER
 10
666220.4695
 20
5915330.0889
 30
0.0000
  0
VERTEX
  8
BORDER
 10
666220.4695
 20
5915611.6626
 30
0.0000
  0
VERTEX
  8
BORDER
 10
665938.4439
 20
5915611.6626
 30
0.0000
  0
SEQEND
  8
BORDER
  0
LINE
  8
NORTH
 10
666210.4695
 20
5915591.6626
 30
0.0
 11
666210.4695
 21
5915606.6626
 31
0.0
  0
LINE
  8
NORTH
 10
666210.4695
 20
5915606.6626
 30
0.0
 11
666207.9695
 21
5915601.6626
 31
0.0
  0
LINE
  8
NORTH
 10
666210.4695
 20
5915606.6626
 30
0.0
 11
666212.9695
 21
5915601.6626
 31
0.0
  0
TEXT
  8
NORTH
 10
666209.2195
 20
5915607.9126
 30
0.0000
 40
3.7500
  1
N
 50
0.00
  0
TEXT
  8
TITLE
 10
665940.9439
 20
5915354.5889
 30
0.0000
 40
4.5000
  1
Simulated site (rtkd end-to-end)
 50
0.00
  0
TEXT
  8
TITLE
 10
665940.9439
 20
5915349.0889
 30
0.0000
 40
2.7500
  1
WGS84 / UTM zone 29N
 50
0.00
  0
TEXT
  8
TITLE
 10
665940.9439
 20
5915343.5889
 30
0.0000
 40
2.7500
  1
49 points   contour interval 1 m   scale 1:1000
 50
0.00
  0
TEXT
  8
TITLE
 10
665940.9439
 20
5915338.0889
 30
0.0000
 40
2.7500
  1
Surveyed 2026-10-02   simulated rover
 50
0.00
  0
TEXT
  8
TITLE
 10
665940.9439
 20
5915332.5889
 30
0.0000
 40
2.7500
  1
HOBBY SURVEY - NOT FOR PERMITS OR BOUNDARY USE
 50
0.00
  0
ENDSEC
  0
EOF
