  0
SECTION
  2
HEADER
  9
$ACADVER
  1
AC1009
  0
ENDSEC
  0
SECTION
  2
TABLES
  0
TABLE
  2
LAYER
 70
12
  0
LAYER
  2
BORDER
 70
0
 62
7
  6
CONTINUOUS
  0
LAYER
  2
TITLE
 70
0
 62
7
  6
CONTINUOUS
  0
LAYER
  2
POINTS
 70
0
 62
7
  6
CONTINUOUS
  0
LAYER
  2
POINT_NO
 70
0
 62
3
  6
CONTINUOUS
  0
LAYER
  2
POINT_ELEV
 70
0
 62
4
  6
CONTINUOUS
  0
LAYER
  2
POINT_CODE
 70
0
 62
2
  6
CONTINUOUS
  0
LAYER
  2
CONTOUR_MINOR
 70
0
 62
30
  6
CONTINUOUS
  0
LAYER
  2
CONTOUR_MAJOR
 70
0
 62
20
  6
CONTINUOUS
  0
LAYER
  2
CONTOUR_LABEL
 70
0
 62
20
  6
CONTINUOUS
  0
LAYER
  2
TIN
 70
0
 62
8
  6
CONTINUOUS
  0
LAYER
  2
TIN_3D
 70
0
 62
8
  6
CONTINUOUS
  0
LAYER
  2
NORTH
 70
0
 62
7
  6
CONTINUOUS
  0
ENDTAB
  0
ENDSEC
  0
SECTION
  2
ENTITIES
  0
POINT
  8
POINTS
 10
12.8020
 20
7.4623
 30
60.0090
  0
TEXT
  8
POINT_NO
 10
14.3020
 20
8.4623
 30
0.0000
 40
2.5000
  1
1
 50
0.00
  0
TEXT
  8
POINT_ELEV
 10
14.3020
 20
4.2123
 30
0.0000
 40
2.0000
  1
60.01
 50
0.00
  0
TEXT
  8
POINT_CODE
 10
14.3020
 20
1.4623
 30
0.0000
 40
1.7500
  1
COR
 50
0.00
  0
POINT
  8
POINTS
 10
213.0960
 20
14.4701
 30
70.0000
  0
TEXT
  8
POINT_NO
 10
214.5960
 20
15.4701
 30
0.0000
 40
2.5000
  1
2
 50
0.00
  0
TEXT
  8
POINT_ELEV
 10
214.5960
 20
11.2201
 30
0.0000
 40
2.0000
  1
70.00
 50
0.00
  0
TEXT
  8
POINT_CODE
 10
214.5960
 20
8.4701
 30
0.0000
 40
1.7500
  1
COR
 50
0.00
  0
POINT
  8
POINTS
 10
206.1039
 20
214.2892
 30
69.9990
  0
TEXT
  8
POINT_NO
 10
207.6039
 20
215.2892
 30
0.0000
 40
2.5000
  1
3
 50
0.00
  0
TEXT
  8
POINT_ELEV
 10
207.6039
 20
211.0392
 30
0.0000
 40
2.0000
  1
70.00
 50
0.00
  0
TEXT
  8
POINT_CODE
 10
207.6039
 20
208.2892
 30
0.0000
 40
1.7500
  1
COR
 50
0.00
  0
POINT
  8
POINTS
 10
5.8173
 20
207.2826
 30
60.0020
  0
TEXT
  8
POINT_NO
 10
7.3173
 20
208.2826
 30
0.0000
 40
2.5000
  1
4
 50
0.00
  0
TEXT
  8
POINT_ELEV
 10
7.3173
 20
204.0326
 30
0.0000
 40
2.0000
  1
60.00
 50
0.00
  0
TEXT
  8
POINT_CODE
 10
7.3173
 20
201.2826
 30
0.0000
 40
1.7500
  1
COR
 50
0.00
  0
POINT
  8
POINTS
 10
37.8390
 20
8.3387
 30
61.2570
  0
TEXT
  8
POINT_NO
 10
39.3390
 20
9.3387
 30
0.0000
 40
2.5000
  1
5
 50
0.00
  0
TEXT
  8
POINT_ELEV
 10
39.3390
 20
5.0887
 30
0.0000
 40
2.0000
  1
61.26
 50
0.00
  0
TEXT
  8
POINT_CODE
 10
39.3390
 20
2.3387
 30
0.0000
 40
1.7500
  1
FNC
 50
0.00
  0
POINT
  8
POINTS
 10
30.8530
 20
208.1515
 30
61.2230
  0
TEXT
  8
POINT_NO
 10
32.3530
 20
209.1515
 30
0.0000
 40
2.5000
  1
6
 50
0.00
  0
TEXT
  8
POINT_ELEV
 10
32.3530
 20
204.9015
 30
0.0000
 40
2.0000
  1
61.22
 50
0.00
  0
TEXT
  8
POINT_CODE
 10
32.3530
 20
202.1515
 30
0.0000
 40
1.7500
  1
FNC
 50
0.00
  0
POINT
  8
POINTS
 10
62.8727
 20
9.2125
 30
62.5060
  0
TEXT
  8
POINT_NO
 10
64.3727
 20
10.2125
 30
0.0000
 40
2.5000
  1
7
 50
0.00
  0
TEXT
  8
POINT_ELEV
 10
64.3727
 20
5.9625
 30
0.0000
 40
2.0000
  1
62.51
 50
0.00
  0
TEXT
  8
POINT_CODE
 10
64.3727
 20
3.2125
 30
0.0000
 40
1.7500
  1
FNC
 50
0.00
  0
POINT
  8
POINTS
 10
55.8893
 20
209.0313
 30
62.4200
  0
TEXT
  8
POINT_NO
 10
57.3893
 20
210.0313
 30
0.0000
 40
2.5000
  1
8
 50
0.00
  0
TEXT
  8
POINT_ELEV
 10
57.3893
 20
205.7813
 30
0.0000
 40
2.0000
  1
62.42
 50
0.00
  0
TEXT
  8
POINT_CODE
 10
57.3893
 20
203.0313
 30
0.0000
 40
1.7500
  1
FNC
 50
0.00
  0
POINT
  8
POINTS
 10
87.9130
 20
10.0881
 30
63.7780
  0
TEXT
  8
POINT_NO
 10
89.4130
 20
11.0881
 30
0.0000
 40
2.5000
  1
9
 50
0.00
  0
TEXT
  8
POINT_ELEV
 10
89.4130
 20
6.8381
 30
0.0000
 40
2.0000
  1
63.78
 50
0.00
  0
TEXT
  8
POINT_CODE
 10
89.4130
 20
4.0881
 30
0.0000
 40
1.7500
  1
FNC
 50
0.00
  0
POINT
  8
POINTS
 10
80.9252
 20
209.9087
 30
63.6800
  0
TEXT
  8
POINT_NO
 10
82.4252
 20
210.9087
 30
0.0000
 40
2.5000
  1
10
 50
0.00
  0
TEXT
  8
POINT_ELEV
 10
82.4252
 20
206.6587
 30
0.0000
 40
2.0000
  1
63.68
 50
0.00
  0
TEXT
  8
POINT_CODE
 10
82.4252
 20
203.9087
 30
0.0000
 40
1.7500
  1
FNC
 50
0.00
  0
POINT
  8
POINTS
 10
112.9516
 20
10.9652
 30
65.0730
  0
TEXT
  8
POINT_NO
 10
114.4516
 20
11.9652
 30
0.0000
 40
2.5000
  1
11
 50
0.00
  0
TEXT
  8
POINT_ELEV
 10
114.4516
 20
7.7152
 30
0.0000
 40
2.0000
  1
65.07
 50
0.00
  0
TEXT
  8
POINT_CODE
 10
114.4516
 20
4.9652
 30
0.0000
 40
1.7500
  1
FNC
 50
0.00
  0
POINT
  8
POINTS
 10
105.9624
 20
210.7807
 30
64.9810
  0
TEXT
  8
POINT_NO
 10
107.4624
 20
211.7807
 30
0.0000
 40
2.5000
  1
12
 50
0.00
  0
TEXT
  8
POINT_ELEV
 10
107.4624
 20
207.5307
 30
0.0000
 40
2.0000
  1
64.98
 50
0.00
  0
TEXT
  8
POINT_CODE
 10
107.4624
 20
204.7807
 30
0.0000
 40
1.7500
  1
FNC
 50
0.00
  0
POINT
  8
POINTS
 10
137.9906
 20
11.8400
 30
66.3340
  0
TEXT
  8
POINT_NO
 10
139.4906
 20
12.8400
 30
0.0000
 40
2.5000
  1
13
 50
0.00
  0
TEXT
  8
POINT_ELEV
 10
139.4906
 20
8.5900
 30
0.0000
 40
2.0000
  1
66.33
 50
0.00
  0
TEXT
  8
POINT_CODE
 10
139.4906
 20
5.8400
 30
0.0000
 40
1.7500
  1
FNC
 50
0.00
  0
POINT
  8
POINTS
 10
130.9969
 20
211.6559
 30
66.2480
  0
TEXT
  8
POINT_NO
 10
132.4969
 20
212.6559
 30
0.0000
 40
2.5000
  1
14
 50
0.00
  0
TEXT
  8
POINT_ELEV
 10
132.4969
 20
208.4059
 30
0.0000
 40
2.0000
  1
66.25
 50
0.00
  0
TEXT
  8
POINT_CODE
 10
132.4969
 20
205.6559
 30
0.0000
 40
1.7500
  1
FNC
 50
0.00
  0
POINT
  8
POINTS
 10
163.0248
 20
12.7139
 30
67.5510
  0
TEXT
  8
POINT_NO
 10
164.5248
 20
13.7139
 30
0.0000
 40
2.5000
  1
15
 50
0.00
  0
TEXT
  8
POINT_ELEV
 10
164.5248
 20
9.4639
 30
0.0000
 40
2.0000
  1
67.55
 50
0.00
  0
TEXT
  8
POINT_CODE
 10
164.5248
 20
6.7139
 30
0.0000
 40
1.7500
  1
FNC
 50
0.00
  0
POINT
  8
POINTS
 10
156.0350
 20
212.5323
 30
67.5020
  0
TEXT
  8
POINT_NO
 10
157.5350
 20
213.5323
 30
0.0000
 40
2.5000
  1
16
 50
0.00
  0
TEXT
  8
POINT_ELEV
 10
157.5350
 20
209.2823
 30
0.0000
 40
2.0000
  1
67.50
 50
0.00
  0
TEXT
  8
POINT_CODE
 10
157.5350
 20
206.5323
 30
0.0000
 40
1.7500
  1
FNC
 50
0.00
  0
POINT
  8
POINTS
 10
188.0628
 20
13.5922
 30
68.7710
  0
TEXT
  8
POINT_NO
 10
189.5628
 20
14.5922
 30
0.0000
 40
2.5000
  1
17
 50
0.00
  0
TEXT
  8
POINT_ELEV
 10
189.5628
 20
10.3422
 30
0.0000
 40
2.0000
  1
68.77
 50
0.00
  0
TEXT
  8
POINT_CODE
 10
189.5628
 20
7.5922
 30
0.0000
 40
1.7500
  1
FNC
 50
0.00
  0
POINT
  8
POINTS
 10
181.0684
 20
213.4112
 30
68.7570
  0
TEXT
  8
POINT_NO
 10
182.5684
 20
214.4112
 30
0.0000
 40
2.5000
  1
18
 50
0.00
  0
TEXT
  8
POINT_ELEV
 10
182.5684
 20
210.1612
 30
0.0000
 40
2.0000
  1
68.76
 50
0.00
  0
TEXT
  8
POINT_CODE
 10
182.5684
 20
207.4112
 30
0.0000
 40
1.7500
  1
FNC
 50
0.00
  0
POINT
  8
POINTS
 10
11.9255
 20
32.4407
 30
59.9930
  0
TEXT
  8
POINT_NO
 10
13.4255
 20
33.4407
 30
0.0000
 40
2.5000
  1
19
 50
0.00
  0
TEXT
  8
POINT_ELEV
 10
13.4255
 20
29.1907
 30
0.0000
 40
2.0000
  1
59.99
 50
0.00
  0
TEXT
  8
POINT_CODE
 10
13.4255
 20
26.4407
 30
0.0000
 40
1.7500
  1
FNC
 50
0.00
  0
POINT
  8
POINTS
 10
212.2234
 20
39.4468
 30
70.0190
  0
TEXT
  8
POINT_NO
 10
213.7234
 20
40.4468
 30
0.0000
 40
2.5000
  1
20
 50
0.00
  0
TEXT
  8
POINT_ELEV
 10
213.7234
 20
36.1968
 30
0.0000
 40
2.0000
  1
70.02
 50
0.00
  0
TEXT
  8
POINT_CODE
 10
213.7234
 20
33.4468
 30
0.0000
 40
1.7500
  1
FNC
 50
0.00
  0
POINT
  8
POINTS
 10
11.0563
 20
57.4193
 30
60.0000
  0
TEXT
  8
POINT_NO
 10
12.5563
 20
58.4193
 30
0.0000
 40
2.5000
  1
21
 50
0.00
  0
TEXT
  8
POINT_ELEV
 10
12.5563
 20
54.1693
 30
0.0000
 40
2.0000
  1
60.00
 50
0.00
  0
TEXT
  8
POINT_CODE
 10
12.5563
 20
51.4193
 30
0.0000
 40
1.7500
  1
FNC
 50
0.00
  0
POINT
  8
POINTS
 10
211.3500
 20
64.4219
 30
70.0550
  0
TEXT
  8
POINT_NO
 10
212.8500
 20
65.4219
 30
0.0000
 40
2.5000
  1
22
 50
0.00
  0
TEXT
  8
POINT_ELEV
 10
212.8500
 20
61.1719
 30
0.0000
 40
2.0000
  1
70.06
 50
0.00
  0
TEXT
  8
POINT_CODE
 10
212.8500
 20
58.4219
 30
0.0000
 40
1.7500
  1
FNC
 50
0.00
  0
POINT
  8
POINTS
 10
10.1824
 20
82.3948
 30
59.9940
  0
TEXT
  8
POINT_NO
 10
11.6824
 20
83.3948
 30
0.0000
 40
2.5000
  1
23
 50
0.00
  0
TEXT
  8
POINT_ELEV
 10
11.6824
 20
79.1448
 30
0.0000
 40
2.0000
  1
59.99
 50
0.00
  0
TEXT
  8
POINT_CODE
 10
11.6824
 20
76.3948
 30
0.0000
 40
1.7500
  1
FNC
 50
0.00
  0
POINT
  8
POINTS
 10
210.4729
 20
89.3981
 30
70.0870
  0
TEXT
  8
POINT_NO
 10
211.9729
 20
90.3981
 30
0.0000
 40
2.5000
  1
24
 50
0.00
  0
TEXT
  8
POINT_ELEV
 10
211.9729
 20
86.1481
 30
0.0000
 40
2.0000
  1
70.09
 50
0.00
  0
TEXT
  8
POINT_CODE
 10
211.9729
 20
83.3981
 30
0.0000
 40
1.7500
  1
FNC
 50
0.00
  0
POINT
  8
POINTS
 10
9.3097
 20
107.3749
 30
59.9760
  0
TEXT
  8
POINT_NO
 10
10.8097
 20
108.3749
 30
0.0000
 40
2.5000
  1
25
 50
0.00
  0
TEXT
  8
POINT_ELEV
 10
10.8097
 20
104.1249
 30
0.0000
 40
2.0000
  1
59.98
 50
0.00
  0
TEXT
  8
POINT_CODE
 10
10.8097
 20
101.3749
 30
0.0000
 40
1.7500
  1
FNC
 50
0.00
  0
POINT
  8
POINTS
 10
209.6047
 20
114.3757
 30
70.0650
  0
TEXT
  8
POINT_NO
 10
211.1047
 20
115.3757
 30
0.0000
 40
2.5000
  1
26
 50
0.00
  0
TEXT
  8
POINT_ELEV
 10
211.1047
 20
111.1257
 30
0.0000
 40
2.0000
  1
70.06
 50
0.00
  0
TEXT
  8
POINT_CODE
 10
211.1047
 20
108.3757
 30
0.0000
 40
1.7500
  1
FNC
 50
0.00
  0
POINT
  8
POINTS
 10
8.4397
 20
132.3468
 30
59.9260
  0
TEXT
  8
POINT_NO
 10
9.9397
 20
133.3468
 30
0.0000
 40
2.5000
  1
27
 50
0.00
  0
TEXT
  8
POINT_ELEV
 10
9.9397
 20
129.0968
 30
0.0000
 40
2.0000
  1
59.93
 50
0.00
  0
TEXT
  8
POINT_CODE
 10
9.9397
 20
126.3468
 30
0.0000
 40
1.7500
  1
FNC
 50
0.00
  0
POINT
  8
POINTS
 10
208.7280
 20
139.3560
 30
70.0280
  0
TEXT
  8
POINT_NO
 10
210.2280
 20
140.3560
 30
0.0000
 40
2.5000
  1
28
 50
0.00
  0
TEXT
  8
POINT_ELEV
 10
210.2280
 20
136.1060
 30
0.0000
 40
2.0000
  1
70.03
 50
0.00
  0
TEXT
  8
POINT_CODE
 10
210.2280
 20
133.3560
 30
0.0000
 40
1.7500
  1
FNC
 50
0.00
  0
POINT
  8
POINTS
 10
7.5640
 20
157.3256
 30
59.9240
  0
TEXT
  8
POINT_NO
 10
9.0640
 20
158.3256
 30
0.0000
 40
2.5000
  1
29
 50
0.00
  0
TEXT
  8
POINT_ELEV
 10
9.0640
 20
154.0756
 30
0.0000
 40
2.0000
  1
59.92
 50
0.00
  0
TEXT
  8
POINT_CODE
 10
9.0640
 20
151.3256
 30
0.0000
 40
1.7500
  1
FNC
 50
0.00
  0
POINT
  8
POINTS
 10
207.8562
 20
164.3287
 30
69.9990
  0
TEXT
  8
POINT_NO
 10
209.3562
 20
165.3287
 30
0.0000
 40
2.5000
  1
30
 50
0.00
  0
TEXT
  8
POINT_ELEV
 10
209.3562
 20
161.0787
 30
0.0000
 40
2.0000
  1
70.00
 50
0.00
  0
TEXT
  8
POINT_CODE
 10
209.3562
 20
158.3287
 30
0.0000
 40
1.7500
  1
FNC
 50
0.00
  0
POINT
  8
POINTS
 10
6.6933
 20
182.3012
 30
59.9710
  0
TEXT
  8
POINT_NO
 10
8.1933
 20
183.3012
 30
0.0000
 40
2.5000
  1
31
 50
0.00
  0
TEXT
  8
POINT_ELEV
 10
8.1933
 20
179.0512
 30
0.0000
 40
2.0000
  1
59.97
 50
0.00
  0
TEXT
  8
POINT_CODE
 10
8.1933
 20
176.3012
 30
0.0000
 40
1.7500
  1
FNC
 50
0.00
  0
POINT
  8
POINTS
 10
206.9820
 20
189.3134
 30
69.9940
  0
TEXT
  8
POINT_NO
 10
208.4820
 20
190.3134
 30
0.0000
 40
2.5000
  1
32
 50
0.00
  0
TEXT
  8
POINT_ELEV
 10
208.4820
 20
186.0634
 30
0.0000
 40
2.0000
  1
69.99
 50
0.00
  0
TEXT
  8
POINT_CODE
 10
208.4820
 20
183.3134
 30
0.0000
 40
1.7500
  1
FNC
 50
0.00
  0
POINT
  8
POINTS
 10
61.1284
 20
59.1677
 30
62.6160
  0
TEXT
  8
POINT_NO
 10
62.6284
 20
60.1677
 30
0.0000
 40
2.5000
  1
33
 50
0.00
  0
TEXT
  8
POINT_ELEV
 10
62.6284
 20
55.9177
 30
0.0000
 40
2.0000
  1
62.62
 50
0.00
  0
TEXT
  8
POINT_CODE
 10
62.6284
 20
53.1677
 30
0.0000
 40
1.7500
  1
PT
 50
0.00
  0
POINT
  8
POINTS
 10
59.3818
 20
109.1195
 30
62.2690
  0
TEXT
  8
POINT_NO
 10
60.8818
 20
110.1195
 30
0.0000
 40
2.5000
  1
34
 50
0.00
  0
TEXT
  8
POINT_ELEV
 10
60.8818
 20
105.8695
 30
0.0000
 40
2.0000
  1
62.27
 50
0.00
  0
TEXT
  8
POINT_CODE
 10
60.8818
 20
103.1195
 30
0.0000
 40
1.7500
  1
PT
 50
0.00
  0
POINT
  8
POINTS
 10
57.6341
 20
159.0709
 30
61.2400
  0
TEXT
  8
POINT_NO
 10
59.1341
 20
160.0709
 30
0.0000
 40
2.5000
  1
35
 50
0.00
  0
TEXT
  8
POINT_ELEV
 10
59.1341
 20
155.8209
 30
0.0000
 40
2.0000
  1
61.24
 50
0.00
  0
TEXT
  8
POINT_CODE
 10
59.1341
 20
153.0709
 30
0.0000
 40
1.7500
  1
PT
 50
0.00
  0
POINT
  8
POINTS
 10
111.2015
 20
60.9188
 30
66.4560
  0
TEXT
  8
POINT_NO
 10
112.7015
 20
61.9188
 30
0.0000
 40
2.5000
  1
36
 50
0.00
  0
TEXT
  8
POINT_ELEV
 10
112.7015
 20
57.6688
 30
0.0000
 40
2.0000
  1
66.46
 50
0.00
  0
TEXT
  8
POINT_CODE
 10
112.7015
 20
54.9188
 30
0.0000
 40
1.7500
  1
PT
 50
0.00
  0
POINT
  8
POINTS
 10
109.4587
 20
110.8726
 30
66.8140
  0
TEXT
  8
POINT_NO
 10
110.9587
 20
111.8726
 30
0.0000
 40
2.5000
  1
37
 50
0.00
  0
TEXT
  8
POINT_ELEV
 10
110.9587
 20
107.6226
 30
0.0000
 40
2.0000
  1
66.81
 50
0.00
  0
TEXT
  8
POINT_CODE
 10
110.9587
 20
104.8726
 30
0.0000
 40
1.7500
  1
PT
 50
0.00
  0
POINT
  8
POINTS
 10
107.7087
 20
160.8232
 30
64.7790
  0
TEXT
  8
POINT_NO
 10
109.2087
 20
161.8232
 30
0.0000
 40
2.5000
  1
38
 50
0.00
  0
TEXT
  8
POINT_ELEV
 10
109.2087
 20
157.5732
 30
0.0000
 40
2.0000
  1
64.78
 50
0.00
  0
TEXT
  8
POINT_CODE
 10
109.2087
 20
154.8232
 30
0.0000
 40
1.7500
  1
PT
 50
0.00
  0
POINT
  8
POINTS
 10
161.2772
 20
62.6720
 30
68.5940
  0
TEXT
  8
POINT_NO
 10
162.7772
 20
63.6720
 30
0.0000
 40
2.5000
  1
39
 50
0.00
  0
TEXT
  8
POINT_ELEV
 10
162.7772
 20
59.4220
 30
0.0000
 40
2.0000
  1
68.59
 50
0.00
  0
TEXT
  8
POINT_CODE
 10
162.7772
 20
56.6720
 30
0.0000
 40
1.7500
  1
PT
 50
0.00
  0
POINT
  8
POINTS
 10
159.5288
 20
112.6305
 30
68.9550
  0
TEXT
  8
POINT_NO
 10
161.0288
 20
113.6305
 30
0.0000
 40
2.5000
  1
40
 50
0.00
  0
TEXT
  8
POINT_ELEV
 10
161.0288
 20
109.3805
 30
0.0000
 40
2.0000
  1
68.95
 50
0.00
  0
TEXT
  8
POINT_CODE
 10
161.0288
 20
106.6305
 30
0.0000
 40
1.7500
  1
PT
 50
0.00
  0
POINT
  8
POINTS
 10
157.7753
 20
162.5780
 30
67.6230
  0
TEXT
  8
POINT_NO
 10
159.2753
 20
163.5780
 30
0.0000
 40
2.5000
  1
41
 50
0.00
  0
TEXT
  8
POINT_ELEV
 10
159.2753
 20
159.3280
 30
0.0000
 40
2.0000
  1
67.62
 50
0.00
  0
TEXT
  8
POINT_CODE
 10
159.2753
 20
156.5780
 30
0.0000
 40
1.7500
  1
PT
 50
0.00
  0
POINT
  8
POINTS
 10
100.8380
 20
70.5593
 30
65.9590
  0
TEXT
  8
POINT_NO
 10
102.3380
 20
71.5593
 30
0.0000
 40
2.5000
  1
42
 50
0.00
  0
TEXT
  8
POINT_ELEV
 10
102.3380
 20
67.3093
 30
0.0000
 40
2.0000
  1
65.96
 50
0.00
  0
TEXT
  8
POINT_CODE
 10
102.3380
 20
64.5593
 30
0.0000
 40
1.7500
  1
BLD
 50
0.00
  0
POINT
  8
POINTS
 10
120.8662
 20
71.2572
 30
67.7730
  0
TEXT
  8
POINT_NO
 10
122.3662
 20
72.2572
 30
0.0000
 40
2.5000
  1
43
 50
0.00
  0
TEXT
  8
POINT_ELEV
 10
122.3662
 20
68.0072
 30
0.0000
 40
2.0000
  1
67.77
 50
0.00
  0
TEXT
  8
POINT_CODE
 10
122.3662
 20
65.2572
 30
0.0000
 40
1.7500
  1
BLD
 50
0.00
  0
POINT
  8
POINTS
 10
119.9966
 20
96.2381
 30
68.2750
  0
TEXT
  8
POINT_NO
 10
121.4966
 20
97.2381
 30
0.0000
 40
2.5000
  1
44
 50
0.00
  0
TEXT
  8
POINT_ELEV
 10
121.4966
 20
92.9881
 30
0.0000
 40
2.0000
  1
68.28
 50
0.00
  0
TEXT
  8
POINT_CODE
 10
121.4966
 20
90.2381
 30
0.0000
 40
1.7500
  1
BLD
 50
0.00
  0
POINT
  8
POINTS
 10
99.9659
 20
95.5375
 30
66.2330
  0
TEXT
  8
POINT_NO
 10
101.4659
 20
96.5375
 30
0.0000
 40
2.5000
  1
45
 50
0.00
  0
TEXT
  8
POINT_ELEV
 10
101.4659
 20
92.2875
 30
0.0000
 40
2.0000
  1
66.23
 50
0.00
  0
TEXT
  8
POINT_CODE
 10
101.4659
 20
89.5375
 30
0.0000
 40
1.7500
  1
BLD
 50
0.00
  0
POINT
  8
POINTS
 10
148.1193
 20
152.2387
 30
67.3140
  0
TEXT
  8
POINT_NO
 10
149.6193
 20
153.2387
 30
0.0000
 40
2.5000
  1
46
 50
0.00
  0
TEXT
  8
POINT_ELEV
 10
149.6193
 20
148.9887
 30
0.0000
 40
2.0000
  1
67.31
 50
0.00
  0
TEXT
  8
POINT_CODE
 10
149.6193
 20
146.2387
 30
0.0000
 40
1.7500
  1
TRE
 50
0.00
  0
POINT
  8
POINTS
 10
178.8596
 20
133.3050
 30
68.8050
  0
TEXT
  8
POINT_NO
 10
180.3596
 20
134.3050
 30
0.0000
 40
2.5000
  1
47
 50
0.00
  0
TEXT
  8
POINT_ELEV
 10
180.3596
 20
130.0550
 30
0.0000
 40
2.0000
  1
68.81
 50
0.00
  0
TEXT
  8
POINT_CODE
 10
180.3596
 20
127.3050
 30
0.0000
 40
1.7500
  1
TRE
 50
0.00
  0
POINT
  8
POINTS
 10
39.3594
 20
108.4250
 30
61.3220
  0
TEXT
  8
POINT_NO
 10
40.8594
 20
109.4250
 30
0.0000
 40
2.5000
  1
48
 50
0.00
  0
TEXT
  8
POINT_ELEV
 10
40.8594
 20
105.1750
 30
0.0000
 40
2.0000
  1
61.32
 50
0.00
  0
TEXT
  8
POINT_CODE
 10
40.8594
 20
102.4250
 30
0.0000
 40
1.7500
  1
TRE
 50
0.00
  0
POINT
  8
POINTS
 10
67.9986
 20
149.4352
 30
61.5570
  0
TEXT
  8
POINT_NO
 10
69.4986
 20
150.4352
 30
0.0000
 40
2.5000
  1
49
 50
0.00
  0
TEXT
  8
POINT_ELEV
 10
69.4986
 20
146.1852
 30
0.0000
 40
2.0000
  1
61.56
 50
0.00
  0
TEXT
  8
POINT_CODE
 10
69.4986
 20
143.4352
 30
0.0000
 40
1.7500
  1
TRE
 50
0.00
  0
POLYLINE
  8
CONTOUR_MAJOR
 66
1
 10
0.0
 20
0.0
 30
60.0000
 70
0
  0
VERTEX
  8
CONTOUR_MAJOR
 10
11.0563
 20
57.4193
 30
60.0000
  0
VERTEX
  8
CONTOUR_MAJOR
 10
12.0568
 20
32.5120
 30
60.0000
  0
VERTEX
  8
CONTOUR_MAJOR
 10
12.0690
 20
32.3072
 30
60.0000
  0
VERTEX
  8
CONTOUR_MAJOR
 10
12.3089
 20
21.5126
 30
60.0000
  0
SEQEND
  8
CONTOUR_MAJOR
  0
TEXT
  8
CONTOUR_LABEL
 10
12.0690
 20
32.3072
 30
60.0000
 40
2.2500
  1
60
 50
0.00
  0
POLYLINE
  8
CONTOUR_MAJOR
 66
1
 10
0.0
 20
0.0
 30
60.0000
 70
0
  0
VERTEX
  8
CONTOUR_MAJOR
 10
5.8739
 20
205.6709
 30
60.0000
  0
VERTEX
  8
CONTOUR_MAJOR
 10
7.2529
 20
182.8999
 30
60.0000
  0
VERTEX
  8
CONTOUR_MAJOR
 10
7.8574
 20
181.7703
 30
60.0000
  0
VERTEX
  8
CONTOUR_MAJOR
 10
10.4556
 20
157.4264
 30
60.0000
  0
VERTEX
  8
CONTOUR_MAJOR
 10
11.2101
 20
133.8518
 30
60.0000
  0
VERTEX
  8
CONTOUR_MAJOR
 10
10.0787
 20
131.0788
 30
60.0000
  0
VERTEX
  8
CONTOUR_MAJOR
 10
9.8455
 20
107.3936
 30
60.0000
  0
VERTEX
  8
CONTOUR_MAJOR
 10
10.3143
 20
82.5124
 30
60.0000
  0
VERTEX
  8
CONTOUR_MAJOR
 10
10.2990
 20
82.3417
 30
60.0000
  0
VERTEX
  8
CONTOUR_MAJOR
 10
11.0563
 20
57.4193
 30
60.0000
  0
SEQEND
  8
CONTOUR_MAJOR
  0
TEXT
  8
CONTOUR_LABEL
 10
10.0787
 20
131.0788
 30
60.0000
 40
2.2500
  1
60
 50
0.00
  0
POLYLINE
  8
CONTOUR_MINOR
 66
1
 10
0.0
 20
0.0
 30
61.0000
 70
0
  0
VERTEX
  8
CONTOUR_MINOR
 10
26.2806
 20
207.9928
 30
61.0000
  0
VERTEX
  8
CONTOUR_MINOR
 10
26.5498
 20
203.5471
 30
61.0000
  0
VERTEX
  8
CONTOUR_MINOR
 10
47.9999
 20
163.4643
 30
61.0000
  0
VERTEX
  8
CONTOUR_MINOR
 10
48.5027
 20
158.7526
 30
61.0000
  0
VERTEX
  8
CONTOUR_MINOR
 10
48.6488
 20
154.1898
 30
61.0000
  0
VERTEX
  8
CONTOUR_MINOR
 10
32.2275
 20
113.9427
 30
61.0000
  0
VERTEX
  8
CONTOUR_MINOR
 10
32.1707
 20
108.1738
 30
61.0000
  0
VERTEX
  8
CONTOUR_MINOR
 10
32.2849
 20
102.1134
 30
61.0000
  0
VERTEX
  8
CONTOUR_MINOR
 10
29.7292
 20
73.4831
 30
61.0000
  0
VERTEX
  8
CONTOUR_MINOR
 10
30.1971
 20
58.0877
 30
61.0000
  0
VERTEX
  8
CONTOUR_MINOR
 10
30.8151
 20
42.7015
 30
61.0000
  0
VERTEX
  8
CONTOUR_MINOR
 10
32.5702
 20
13.2392
 30
61.0000
  0
VERTEX
  8
CONTOUR_MINOR
 10
32.6831
 20
8.1582
 30
61.0000
  0
SEQEND
  8
CONTOUR_MINOR
  0
POLYLINE
  8
CONTOUR_MINOR
 66
1
 10
0.0
 20
0.0
 30
62.0000
 70
0
  0
VERTEX
  8
CONTOUR_MINOR
 10
47.1047
 20
208.7226
 30
62.0000
  0
VERTEX
  8
CONTOUR_MINOR
 10
56.5103
 20
191.2488
 30
62.0000
  0
VERTEX
  8
CONTOUR_MINOR
 10
64.8887
 20
174.9056
 30
62.0000
  0
VERTEX
  8
CONTOUR_MINOR
 10
68.3876
 20
159.4472
 30
62.0000
  0
VERTEX
  8
CONTOUR_MINOR
 10
73.4585
 20
151.0010
 30
62.0000
  0
VERTEX
  8
CONTOUR_MINOR
 10
71.4924
 20
146.1856
 30
62.0000
  0
VERTEX
  8
CONTOUR_MINOR
 10
62.6373
 20
124.3511
 30
62.0000
  0
VERTEX
  8
CONTOUR_MINOR
 10
53.6943
 20
108.9222
 30
62.0000
  0
VERTEX
  8
CONTOUR_MINOR
 10
50.7654
 20
82.6163
 30
62.0000
  0
VERTEX
  8
CONTOUR_MINOR
 10
49.1594
 20
64.6245
 30
62.0000
  0
VERTEX
  8
CONTOUR_MINOR
 10
49.3378
 20
58.7560
 30
62.0000
  0
VERTEX
  8
CONTOUR_MINOR
 10
49.5733
 20
52.8910
 30
62.0000
  0
VERTEX
  8
CONTOUR_MINOR
 10
50.5719
 20
36.1282
 30
62.0000
  0
VERTEX
  8
CONTOUR_MINOR
 10
52.7309
 20
8.8585
 30
62.0000
  0
SEQEND
  8
CONTOUR_MINOR
  0
POLYLINE
  8
CONTOUR_MINOR
 66
1
 10
0.0
 20
0.0
 30
63.0000
 70
0
  0
VERTEX
  8
CONTOUR_MINOR
 10
67.4138
 20
209.4352
 30
63.0000
  0
VERTEX
  8
CONTOUR_MINOR
 10
74.4343
 20
195.7408
 30
63.0000
  0
VERTEX
  8
CONTOUR_MINOR
 10
82.5370
 20
159.9423
 30
63.0000
  0
VERTEX
  8
CONTOUR_MINOR
 10
85.7831
 20
154.5354
 30
63.0000
  0
VERTEX
  8
CONTOUR_MINOR
 10
79.3791
 20
138.8501
 30
63.0000
  0
VERTEX
  8
CONTOUR_MINOR
 10
67.4360
 20
109.4014
 30
63.0000
  0
VERTEX
  8
CONTOUR_MINOR
 10
66.8659
 20
106.6148
 30
63.0000
  0
VERTEX
  8
CONTOUR_MINOR
 10
65.2516
 20
63.0289
 30
63.0000
  0
VERTEX
  8
CONTOUR_MINOR
 10
65.6898
 20
60.4762
 30
63.0000
  0
VERTEX
  8
CONTOUR_MINOR
 10
66.1357
 20
59.3428
 30
63.0000
  0
VERTEX
  8
CONTOUR_MINOR
 10
69.9798
 20
42.9486
 30
63.0000
  0
VERTEX
  8
CONTOUR_MINOR
 10
72.5975
 20
9.5525
 30
63.0000
  0
SEQEND
  8
CONTOUR_MINOR
  0
POLYLINE
  8
CONTOUR_MINOR
 66
1
 10
0.0
 20
0.0
 30
64.0000
 70
0
  0
VERTEX
  8
CONTOUR_MINOR
 10
87.0835
 20
210.1232
 30
64.0000
  0
VERTEX
  8
CONTOUR_MINOR
 10
88.7239
 20
195.6163
 30
64.0000
  0
VERTEX
  8
CONTOUR_MINOR
 10
96.6863
 20
160.4375
 30
64.0000
  0
VERTEX
  8
CONTOUR_MINOR
 10
98.1078
 20
158.0699
 30
64.0000
  0
VERTEX
  8
CONTOUR_MINOR
 10
87.2657
 20
131.5147
 30
64.0000
  0
VERTEX
  8
CONTOUR_MINOR
 10
78.4540
 20
109.7872
 30
64.0000
  0
VERTEX
  8
CONTOUR_MINOR
 10
77.1041
 20
103.1885
 30
64.0000
  0
VERTEX
  8
CONTOUR_MINOR
 10
75.9891
 20
73.0841
 30
64.0000
  0
VERTEX
  8
CONTOUR_MINOR
 10
77.5682
 20
63.8838
 30
64.0000
  0
VERTEX
  8
CONTOUR_MINOR
 10
79.1756
 20
59.7988
 30
64.0000
  0
VERTEX
  8
CONTOUR_MINOR
 10
89.8436
 20
14.3018
 30
64.0000
  0
VERTEX
  8
CONTOUR_MINOR
 10
92.2054
 20
10.2385
 30
64.0000
  0
SEQEND
  8
CONTOUR_MINOR
  0
POLYLINE
  8
CONTOUR_MAJOR
 66
1
 10
0.0
 20
0.0
 30
65.0000
 70
0
  0
VERTEX
  8
CONTOUR_MAJOR
 10
106.3379
 20
210.7938
 30
65.0000
  0
VERTEX
  8
CONTOUR_MAJOR
 10
111.2122
 20
168.4706
 30
65.0000
  0
VERTEX
  8
CONTOUR_MAJOR
 10
111.5992
 20
160.9595
 30
65.0000
  0
VERTEX
  8
CONTOUR_MAJOR
 10
111.2317
 20
160.0748
 30
65.0000
  0
VERTEX
  8
CONTOUR_MAJOR
 10
107.8987
 20
155.3986
 30
65.0000
  0
VERTEX
  8
CONTOUR_MAJOR
 10
95.1523
 20
124.1792
 30
65.0000
  0
VERTEX
  8
CONTOUR_MAJOR
 10
89.4720
 20
110.1729
 30
65.0000
  0
VERTEX
  8
CONTOUR_MAJOR
 10
87.3423
 20
99.7622
 30
65.0000
  0
VERTEX
  8
CONTOUR_MAJOR
 10
86.7266
 20
83.1394
 30
65.0000
  0
VERTEX
  8
CONTOUR_MAJOR
 10
89.4466
 20
67.2914
 30
65.0000
  0
VERTEX
  8
CONTOUR_MAJOR
 10
92.2155
 20
60.2548
 30
65.0000
  0
VERTEX
  8
CONTOUR_MAJOR
 10
98.5398
 20
33.2827
 30
65.0000
  0
VERTEX
  8
CONTOUR_MAJOR
 10
111.5401
 20
10.9158
 30
65.0000
  0
SEQEND
  8
CONTOUR_MAJOR
  0
TEXT
  8
CONTOUR_LABEL
 10
89.4720
 20
110.1729
 30
65.0000
 40
2.2500
  1
65
 50
0.00
  0
POLYLINE
  8
CONTOUR_MINOR
 66
1
 10
0.0
 20
0.0
 30
66.0000
 70
0
  0
VERTEX
  8
CONTOUR_MINOR
 10
126.0967
 20
211.4846
 30
66.0000
  0
VERTEX
  8
CONTOUR_MINOR
 10
127.0653
 20
203.0742
 30
66.0000
  0
VERTEX
  8
CONTOUR_MINOR
 10
129.2035
 20
161.5766
 30
66.0000
  0
VERTEX
  8
CONTOUR_MINOR
 10
127.1727
 20
156.6884
 30
66.0000
  0
VERTEX
  8
CONTOUR_MINOR
 10
108.7587
 20
130.8528
 30
66.0000
  0
VERTEX
  8
CONTOUR_MINOR
 10
103.0390
 20
116.8437
 30
66.0000
  0
VERTEX
  8
CONTOUR_MINOR
 10
100.4900
 20
110.5586
 30
66.0000
  0
VERTEX
  8
CONTOUR_MINOR
 10
97.5804
 20
96.3358
 30
66.0000
  0
VERTEX
  8
CONTOUR_MINOR
 10
97.4641
 20
93.1946
 30
66.0000
  0
VERTEX
  8
CONTOUR_MINOR
 10
100.7075
 20
74.2969
 30
66.0000
  0
VERTEX
  8
CONTOUR_MINOR
 10
101.2907
 20
70.5751
 30
66.0000
  0
VERTEX
  8
CONTOUR_MINOR
 10
101.6929
 20
69.7640
 30
66.0000
  0
VERTEX
  8
CONTOUR_MINOR
 10
105.2553
 20
60.7109
 30
66.0000
  0
VERTEX
  8
CONTOUR_MINOR
 10
107.2360
 20
52.2635
 30
66.0000
  0
VERTEX
  8
CONTOUR_MINOR
 10
111.7785
 20
44.4482
 30
66.0000
  0
VERTEX
  8
CONTOUR_MINOR
 10
131.3585
 20
11.6083
 30
66.0000
  0
SEQEND
  8
CONTOUR_MINOR
  0
POLYLINE
  8
CONTOUR_MINOR
 66
1
 10
0.0
 20
0.0
 30
67.0000
 70
0
  0
VERTEX
  8
CONTOUR_MINOR
 10
146.0118
 20
212.1815
 30
67.0000
  0
VERTEX
  8
CONTOUR_MINOR
 10
145.6422
 20
184.8147
 30
67.0000
  0
VERTEX
  8
CONTOUR_MINOR
 10
146.8078
 20
162.1936
 30
67.0000
  0
VERTEX
  8
CONTOUR_MINOR
 10
143.1138
 20
153.3021
 30
67.0000
  0
VERTEX
  8
CONTOUR_MINOR
 10
123.8404
 20
126.2608
 30
67.0000
  0
VERTEX
  8
CONTOUR_MINOR
 10
113.8085
 20
111.0253
 30
67.0000
  0
VERTEX
  8
CONTOUR_MINOR
 10
110.8003
 20
109.0095
 30
67.0000
  0
VERTEX
  8
CONTOUR_MINOR
 10
107.4897
 20
95.8007
 30
67.0000
  0
VERTEX
  8
CONTOUR_MINOR
 10
110.3754
 20
83.4447
 30
67.0000
  0
VERTEX
  8
CONTOUR_MINOR
 10
112.3316
 20
70.9598
 30
67.0000
  0
VERTEX
  8
CONTOUR_MINOR
 10
115.1936
 20
65.1892
 30
67.0000
  0
VERTEX
  8
CONTOUR_MINOR
 10
123.9429
 20
61.3649
 30
67.0000
  0
VERTEX
  8
CONTOUR_MINOR
 10
144.8529
 20
26.8197
 30
67.0000
  0
VERTEX
  8
CONTOUR_MINOR
 10
151.6905
 20
12.3182
 30
67.0000
  0
SEQEND
  8
CONTOUR_MINOR
  0
POLYLINE
  8
CONTOUR_MINOR
 66
1
 10
0.0
 20
0.0
 30
68.0000
 70
0
  0
VERTEX
  8
CONTOUR_MINOR
 10
165.9686
 20
212.8811
 30
68.0000
  0
VERTEX
  8
CONTOUR_MINOR
 10
165.5191
 20
179.4775
 30
68.0000
  0
VERTEX
  8
CONTOUR_MINOR
 10
165.5994
 20
166.8290
 30
68.0000
  0
VERTEX
  8
CONTOUR_MINOR
 10
165.7216
 20
162.8558
 30
68.0000
  0
VERTEX
  8
CONTOUR_MINOR
 10
164.5001
 20
153.2413
 30
68.0000
  0
VERTEX
  8
CONTOUR_MINOR
 10
162.2627
 20
143.5275
 30
68.0000
  0
VERTEX
  8
CONTOUR_MINOR
 10
152.8889
 20
135.6810
 30
68.0000
  0
VERTEX
  8
CONTOUR_MINOR
 10
137.1949
 20
111.8464
 30
68.0000
  0
VERTEX
  8
CONTOUR_MINOR
 10
118.0131
 20
98.9927
 30
68.0000
  0
VERTEX
  8
CONTOUR_MINOR
 10
117.2990
 20
96.1438
 30
68.0000
  0
VERTEX
  8
CONTOUR_MINOR
 10
120.4730
 20
82.5534
 30
68.0000
  0
VERTEX
  8
CONTOUR_MINOR
 10
132.0395
 20
68.8835
 30
68.0000
  0
VERTEX
  8
CONTOUR_MINOR
 10
147.3647
 20
62.1849
 30
68.0000
  0
VERTEX
  8
CONTOUR_MINOR
 10
155.1567
 20
49.3117
 30
68.0000
  0
VERTEX
  8
CONTOUR_MINOR
 10
162.2725
 20
34.2203
 30
68.0000
  0
VERTEX
  8
CONTOUR_MINOR
 10
172.2396
 20
13.0371
 30
68.0000
  0
SEQEND
  8
CONTOUR_MINOR
  0
POLYLINE
  8
CONTOUR_MINOR
 66
1
 10
0.0
 20
0.0
 30
69.0000
 70
0
  0
VERTEX
  8
CONTOUR_MINOR
 10
185.9667
 20
213.5830
 30
69.0000
  0
VERTEX
  8
CONTOUR_MINOR
 10
186.1590
 20
208.6773
 30
69.0000
  0
VERTEX
  8
CONTOUR_MINOR
 10
186.3529
 20
178.1050
 30
69.0000
  0
VERTEX
  8
CONTOUR_MINOR
 10
186.7994
 20
163.5926
 30
69.0000
  0
VERTEX
  8
CONTOUR_MINOR
 10
183.5952
 20
138.3717
 30
69.0000
  0
VERTEX
  8
CONTOUR_MINOR
 10
183.6219
 20
134.2698
 30
69.0000
  0
VERTEX
  8
CONTOUR_MINOR
 10
183.6178
 20
130.3755
 30
69.0000
  0
VERTEX
  8
CONTOUR_MINOR
 10
161.5589
 20
112.7013
 30
69.0000
  0
VERTEX
  8
CONTOUR_MINOR
 10
161.5540
 20
111.7070
 30
69.0000
  0
VERTEX
  8
CONTOUR_MINOR
 10
174.6552
 20
69.9398
 30
69.0000
  0
VERTEX
  8
CONTOUR_MINOR
 10
175.1920
 20
63.1583
 30
69.0000
  0
VERTEX
  8
CONTOUR_MINOR
 10
175.7924
 20
56.0548
 30
69.0000
  0
VERTEX
  8
CONTOUR_MINOR
 10
192.4962
 20
18.3363
 30
69.0000
  0
VERTEX
  8
CONTOUR_MINOR
 10
192.7273
 20
13.7558
 30
69.0000
  0
SEQEND
  8
CONTOUR_MINOR
  0
POLYLINE
  8
CONTOUR_MAJOR
 66
1
 10
0.0
 20
0.0
 30
70.0000
 70
0
  0
VERTEX
  8
CONTOUR_MAJOR
 10
207.8862
 20
163.4675
 30
70.0000
  0
VERTEX
  8
CONTOUR_MAJOR
 10
208.0441
 20
139.2175
 30
70.0000
  0
VERTEX
  8
CONTOUR_MAJOR
 10
208.0186
 20
115.3522
 30
70.0000
  0
VERTEX
  8
CONTOUR_MAJOR
 10
206.6723
 20
114.2735
 30
70.0000
  0
VERTEX
  8
CONTOUR_MAJOR
 10
206.5575
 20
91.1836
 30
70.0000
  0
VERTEX
  8
CONTOUR_MAJOR
 10
207.6061
 20
87.8407
 30
70.0000
  0
VERTEX
  8
CONTOUR_MAJOR
 10
209.4650
 20
64.3561
 30
70.0000
  0
VERTEX
  8
CONTOUR_MAJOR
 10
211.5442
 20
39.7564
 30
70.0000
  0
VERTEX
  8
CONTOUR_MAJOR
 10
211.8556
 20
39.0531
 30
70.0000
  0
VERTEX
  8
CONTOUR_MAJOR
 10
213.0960
 20
14.4701
 30
70.0000
  0
SEQEND
  8
CONTOUR_MAJOR
  0
TEXT
  8
CONTOUR_LABEL
 10
207.6061
 20
87.8407
 30
70.0000
 40
2.2500
  1
70
 50
0.00
  0
3DFACE
  8
TIN_3D
 10
61.1284
 20
59.1677
 30
62.6160
 11
11.0563
 21
57.4193
 31
60.0000
 12
11.9255
 22
32.4407
 32
59.9930
 13
11.9255
 23
32.4407
 33
59.9930
  0
3DFACE
  8
TIN_3D
 10
109.4587
 20
110.8726
 30
66.8140
 11
107.7087
 21
160.8232
 31
64.7790
 12
67.9986
 22
149.4352
 32
61.5570
 13
67.9986
 23
149.4352
 33
61.5570
  0
3DFACE
  8
TIN_3D
 10
67.9986
 20
149.4352
 30
61.5570
 11
59.3818
 21
109.1195
 31
62.2690
 12
109.4587
 22
110.8726
 32
66.8140
 13
109.4587
 23
110.8726
 33
66.8140
  0
3DFACE
  8
TIN_3D
 10
10.1824
 20
82.3948
 30
59.9940
 11
11.0563
 21
57.4193
 31
60.0000
 12
61.1284
 22
59.1677
 32
62.6160
 13
61.1284
 23
59.1677
 33
62.6160
  0
3DFACE
  8
TIN_3D
 10
61.1284
 20
59.1677
 30
62.6160
 11
62.8727
 21
9.2125
 31
62.5060
 12
87.9130
 22
10.0881
 32
63.7780
 13
87.9130
 23
10.0881
 33
63.7780
  0
3DFACE
  8
TIN_3D
 10
112.9516
 20
10.9652
 30
65.0730
 11
111.2015
 21
60.9188
 31
66.4560
 12
87.9130
 22
10.0881
 32
63.7780
 13
87.9130
 23
10.0881
 33
63.7780
  0
3DFACE
  8
TIN_3D
 10
87.9130
 20
10.0881
 30
63.7780
 11
111.2015
 21
60.9188
 31
66.4560
 12
61.1284
 22
59.1677
 32
62.6160
 13
61.1284
 23
59.1677
 33
62.6160
  0
3DFACE
  8
TIN_3D
 10
137.9906
 20
11.8400
 30
66.3340
 11
111.2015
 21
60.9188
 31
66.4560
 12
112.9516
 22
10.9652
 32
65.0730
 13
112.9516
 23
10.9652
 33
65.0730
  0
3DFACE
  8
TIN_3D
 10
99.9659
 20
95.5375
 30
66.2330
 11
59.3818
 21
109.1195
 31
62.2690
 12
61.1284
 22
59.1677
 32
62.6160
 13
61.1284
 23
59.1677
 33
62.6160
  0
3DFACE
  8
TIN_3D
 10
109.4587
 20
110.8726
 30
66.8140
 11
59.3818
 21
109.1195
 31
62.2690
 12
99.9659
 22
95.5375
 32
66.2330
 13
99.9659
 23
95.5375
 33
66.2330
  0
3DFACE
  8
TIN_3D
 10
213.0960
 20
14.4701
 30
70.0000
 11
212.2234
 21
39.4468
 31
70.0190
 12
188.0628
 22
13.5922
 32
68.7710
 13
188.0628
 23
13.5922
 33
68.7710
  0
3DFACE
  8
TIN_3D
 10
161.2772
 20
62.6720
 30
68.5940
 11
137.9906
 21
11.8400
 31
66.3340
 12
163.0248
 22
12.7139
 32
67.5510
 13
163.0248
 23
12.7139
 33
67.5510
  0
3DFACE
  8
TIN_3D
 10
111.2015
 20
60.9188
 30
66.4560
 11
137.9906
 21
11.8400
 31
66.3340
 12
161.2772
 22
62.6720
 32
68.5940
 13
161.2772
 23
62.6720
 33
68.5940
  0
3DFACE
  8
TIN_3D
 10
163.0248
 20
12.7139
 30
67.5510
 11
188.0628
 21
13.5922
 31
68.7710
 12
161.2772
 22
62.6720
 32
68.5940
 13
161.2772
 23
62.6720
 33
68.5940
  0
3DFACE
  8
TIN_3D
 10
161.2772
 20
62.6720
 30
68.5940
 11
188.0628
 21
13.5922
 31
68.7710
 12
212.2234
 22
39.4468
 32
70.0190
 13
212.2234
 23
39.4468
 33
70.0190
  0
3DFACE
  8
TIN_3D
 10
206.9820
 20
189.3134
 30
69.9940
 11
206.1039
 21
214.2892
 31
69.9990
 12
181.0684
 22
213.4112
 32
68.7570
 13
181.0684
 23
213.4112
 33
68.7570
  0
3DFACE
  8
TIN_3D
 10
181.0684
 20
213.4112
 30
68.7570
 11
157.7753
 21
162.5780
 31
67.6230
 12
206.9820
 22
189.3134
 32
69.9940
 13
206.9820
 23
189.3134
 33
69.9940
  0
3DFACE
  8
TIN_3D
 10
156.0350
 20
212.5323
 30
67.5020
 11
157.7753
 21
162.5780
 31
67.6230
 12
181.0684
 22
213.4112
 32
68.7570
 13
181.0684
 23
213.4112
 33
68.7570
  0
3DFACE
  8
TIN_3D
 10
206.9820
 20
189.3134
 30
69.9940
 11
157.7753
 21
162.5780
 31
67.6230
 12
207.8562
 22
164.3287
 32
69.9990
 13
207.8562
 23
164.3287
 33
69.9990
  0
3DFACE
  8
TIN_3D
 10
130.9969
 20
211.6559
 30
66.2480
 11
157.7753
 21
162.5780
 31
67.6230
 12
156.0350
 22
212.5323
 32
67.5020
 13
156.0350
 23
212.5323
 33
67.5020
  0
3DFACE
  8
TIN_3D
 10
105.9624
 20
210.7807
 30
64.9810
 11
107.7087
 21
160.8232
 31
64.7790
 12
130.9969
 22
211.6559
 32
66.2480
 13
130.9969
 23
211.6559
 33
66.2480
  0
3DFACE
  8
TIN_3D
 10
107.7087
 20
160.8232
 30
64.7790
 11
157.7753
 21
162.5780
 31
67.6230
 12
130.9969
 22
211.6559
 32
66.2480
 13
130.9969
 23
211.6559
 33
66.2480
  0
3DFACE
  8
TIN_3D
 10
37.8390
 20
8.3387
 30
61.2570
 11
11.9255
 21
32.4407
 31
59.9930
 12
12.8020
 22
7.4623
 32
60.0090
 13
12.8020
 23
7.4623
 33
60.0090
  0
3DFACE
  8
TIN_3D
 10
37.8390
 20
8.3387
 30
61.2570
 11
62.8727
 21
9.2125
 31
62.5060
 12
61.1284
 22
59.1677
 32
62.6160
 13
61.1284
 23
59.1677
 33
62.6160
  0
3DFACE
  8
TIN_3D
 10
61.1284
 20
59.1677
 30
62.6160
 11
11.9255
 21
32.4407
 31
59.9930
 12
37.8390
 22
8.3387
 32
61.2570
 13
37.8390
 23
8.3387
 33
61.2570
  0
3DFACE
  8
TIN_3D
 10
80.9252
 20
209.9087
 30
63.6800
 11
107.7087
 21
160.8232
 31
64.7790
 12
105.9624
 22
210.7807
 32
64.9810
 13
105.9624
 23
210.7807
 33
64.9810
  0
3DFACE
  8
TIN_3D
 10
6.6933
 20
182.3012
 30
59.9710
 11
30.8530
 21
208.1515
 31
61.2230
 12
5.8173
 22
207.2826
 32
60.0020
 13
5.8173
 23
207.2826
 33
60.0020
  0
3DFACE
  8
TIN_3D
 10
61.1284
 20
59.1677
 30
62.6160
 11
111.2015
 21
60.9188
 31
66.4560
 12
100.8380
 22
70.5593
 32
65.9590
 13
100.8380
 23
70.5593
 33
65.9590
  0
3DFACE
  8
TIN_3D
 10
100.8380
 20
70.5593
 30
65.9590
 11
99.9659
 21
95.5375
 31
66.2330
 12
61.1284
 22
59.1677
 32
62.6160
 13
61.1284
 23
59.1677
 33
62.6160
  0
3DFACE
  8
TIN_3D
 10
109.4587
 20
110.8726
 30
66.8140
 11
99.9659
 21
95.5375
 31
66.2330
 12
119.9966
 22
96.2381
 32
68.2750
 13
119.9966
 23
96.2381
 33
68.2750
  0
3DFACE
  8
TIN_3D
 10
178.8596
 20
133.3050
 30
68.8050
 11
207.8562
 21
164.3287
 31
69.9990
 12
157.7753
 22
162.5780
 32
67.6230
 13
157.7753
 23
162.5780
 33
67.6230
  0
3DFACE
  8
TIN_3D
 10
57.6341
 20
159.0709
 30
61.2400
 11
67.9986
 21
149.4352
 31
61.5570
 12
107.7087
 22
160.8232
 32
64.7790
 13
107.7087
 23
160.8232
 33
64.7790
  0
3DFACE
  8
TIN_3D
 10
107.7087
 20
160.8232
 30
64.7790
 11
80.9252
 21
209.9087
 31
63.6800
 12
57.6341
 22
159.0709
 32
61.2400
 13
57.6341
 23
159.0709
 33
61.2400
  0
3DFACE
  8
TIN_3D
 10
30.8530
 20
208.1515
 30
61.2230
 11
6.6933
 21
182.3012
 31
59.9710
 12
57.6341
 22
159.0709
 32
61.2400
 13
57.6341
 23
159.0709
 33
61.2400
  0
3DFACE
  8
TIN_3D
 10
211.3500
 20
64.4219
 30
70.0550
 11
161.2772
 21
62.6720
 31
68.5940
 12
212.2234
 22
39.4468
 32
70.0190
 13
212.2234
 23
39.4468
 33
70.0190
  0
3DFACE
  8
TIN_3D
 10
211.3500
 20
64.4219
 30
70.0550
 11
210.4729
 21
89.3981
 31
70.0870
 12
161.2772
 22
62.6720
 32
68.5940
 13
161.2772
 23
62.6720
 33
68.5940
  0
3DFACE
  8
TIN_3D
 10
111.2015
 20
60.9188
 30
66.4560
 11
161.2772
 21
62.6720
 31
68.5940
 12
120.8662
 22
71.2572
 32
67.7730
 13
120.8662
 23
71.2572
 33
67.7730
  0
3DFACE
  8
TIN_3D
 10
161.2772
 20
62.6720
 30
68.5940
 11
119.9966
 21
96.2381
 31
68.2750
 12
120.8662
 22
71.2572
 32
67.7730
 13
120.8662
 23
71.2572
 33
67.7730
  0
3DFACE
  8
TIN_3D
 10
120.8662
 20
71.2572
 30
67.7730
 11
100.8380
 21
70.5593
 31
65.9590
 12
111.2015
 22
60.9188
 32
66.4560
 13
111.2015
 23
60.9188
 33
66.4560
  0
3DFACE
  8
TIN_3D
 10
99.9659
 20
95.5375
 30
66.2330
 11
100.8380
 21
70.5593
 31
65.9590
 12
120.8662
 22
71.2572
 32
67.7730
 13
120.8662
 23
71.2572
 33
67.7730
  0
3DFACE
  8
TIN_3D
 10
120.8662
 20
71.2572
 30
67.7730
 11
119.9966
 21
96.2381
 31
68.2750
 12
99.9659
 22
95.5375
 32
66.2330
 13
99.9659
 23
95.5375
 33
66.2330
  0
3DFACE
  8
TIN_3D
 10
208.7280
 20
139.3560
 30
70.0280
 11
178.8596
 21
133.3050
 31
68.8050
 12
209.6047
 22
114.3757
 32
70.0650
 13
209.6047
 23
114.3757
 33
70.0650
  0
3DFACE
  8
TIN_3D
 10
207.8562
 20
164.3287
 30
69.9990
 11
178.8596
 21
133.3050
 31
68.8050
 12
208.7280
 22
139.3560
 32
70.0280
 13
208.7280
 23
139.3560
 33
70.0280
  0
3DFACE
  8
TIN_3D
 10
159.5288
 20
112.6305
 30
68.9550
 11
119.9966
 21
96.2381
 31
68.2750
 12
161.2772
 22
62.6720
 32
68.5940
 13
161.2772
 23
62.6720
 33
68.5940
  0
3DFACE
  8
TIN_3D
 10
161.2772
 20
62.6720
 30
68.5940
 11
210.4729
 21
89.3981
 31
70.0870
 12
159.5288
 22
112.6305
 32
68.9550
 13
159.5288
 23
112.6305
 33
68.9550
  0
3DFACE
  8
TIN_3D
 10
109.4587
 20
110.8726
 30
66.8140
 11
119.9966
 21
96.2381
 31
68.2750
 12
159.5288
 22
112.6305
 32
68.9550
 13
159.5288
 23
112.6305
 33
68.9550
  0
3DFACE
  8
TIN_3D
 10
159.5288
 20
112.6305
 30
68.9550
 11
210.4729
 21
89.3981
 31
70.0870
 12
209.6047
 22
114.3757
 32
70.0650
 13
209.6047
 23
114.3757
 33
70.0650
  0
3DFACE
  8
TIN_3D
 10
209.6047
 20
114.3757
 30
70.0650
 11
178.8596
 21
133.3050
 31
68.8050
 12
159.5288
 22
112.6305
 32
68.9550
 13
159.5288
 23
112.6305
 33
68.9550
  0
3DFACE
  8
TIN_3D
 10
30.8530
 20
208.1515
 30
61.2230
 11
57.6341
 21
159.0709
 31
61.2400
 12
55.8893
 22
209.0313
 32
62.4200
 13
55.8893
 23
209.0313
 33
62.4200
  0
3DFACE
  8
TIN_3D
 10
55.8893
 20
209.0313
 30
62.4200
 11
57.6341
 21
159.0709
 31
61.2400
 12
80.9252
 22
209.9087
 32
63.6800
 13
80.9252
 23
209.9087
 33
63.6800
  0
3DFACE
  8
TIN_3D
 10
7.5640
 20
157.3256
 30
59.9240
 11
57.6341
 21
159.0709
 31
61.2400
 12
6.6933
 22
182.3012
 32
59.9710
 13
6.6933
 23
182.3012
 33
59.9710
  0
3DFACE
  8
TIN_3D
 10
8.4397
 20
132.3468
 30
59.9260
 11
57.6341
 21
159.0709
 31
61.2400
 12
7.5640
 22
157.3256
 32
59.9240
 13
7.5640
 23
157.3256
 33
59.9240
  0
3DFACE
  8
TIN_3D
 10
39.3594
 20
108.4250
 30
61.3220
 11
57.6341
 21
159.0709
 31
61.2400
 12
8.4397
 22
132.3468
 32
59.9260
 13
8.4397
 23
132.3468
 33
59.9260
  0
3DFACE
  8
TIN_3D
 10
39.3594
 20
108.4250
 30
61.3220
 11
8.4397
 21
132.3468
 31
59.9260
 12
9.3097
 22
107.3749
 32
59.9760
 13
9.3097
 23
107.3749
 33
59.9760
  0
3DFACE
  8
TIN_3D
 10
59.3818
 20
109.1195
 30
62.2690
 11
67.9986
 21
149.4352
 31
61.5570
 12
39.3594
 22
108.4250
 32
61.3220
 13
39.3594
 23
108.4250
 33
61.3220
  0
3DFACE
  8
TIN_3D
 10
67.9986
 20
149.4352
 30
61.5570
 11
57.6341
 21
159.0709
 31
61.2400
 12
39.3594
 22
108.4250
 32
61.3220
 13
39.3594
 23
108.4250
 33
61.3220
  0
3DFACE
  8
TIN_3D
 10
9.3097
 20
107.3749
 30
59.9760
 11
10.1824
 21
82.3948
 31
59.9940
 12
39.3594
 22
108.4250
 32
61.3220
 13
39.3594
 23
108.4250
 33
61.3220
  0
3DFACE
  8
TIN_3D
 10
61.1284
 20
59.1677
 30
62.6160
 11
59.3818
 21
109.1195
 31
62.2690
 12
39.3594
 22
108.4250
 32
61.3220
 13
39.3594
 23
108.4250
 33
61.3220
  0
3DFACE
  8
TIN_3D
 10
39.3594
 20
108.4250
 30
61.3220
 11
10.1824
 21
82.3948
 31
59.9940
 12
61.1284
 22
59.1677
 32
62.6160
 13
61.1284
 23
59.1677
 33
62.6160
  0
3DFACE
  8
TIN_3D
 10
148.1193
 20
152.2387
 30
67.3140
 11
178.8596
 21
133.3050
 31
68.8050
 12
157.7753
 22
162.5780
 32
67.6230
 13
157.7753
 23
162.5780
 33
67.6230
  0
3DFACE
  8
TIN_3D
 10
148.1193
 20
152.2387
 30
67.3140
 11
159.5288
 21
112.6305
 31
68.9550
 12
178.8596
 22
133.3050
 32
68.8050
 13
178.8596
 23
133.3050
 33
68.8050
  0
3DFACE
  8
TIN_3D
 10
148.1193
 20
152.2387
 30
67.3140
 11
157.7753
 21
162.5780
 31
67.6230
 12
107.7087
 22
160.8232
 32
64.7790
 13
107.7087
 23
160.8232
 33
64.7790
  0
3DFACE
  8
TIN_3D
 10
148.1193
 20
152.2387
 30
67.3140
 11
107.7087
 21
160.8232
 31
64.7790
 12
109.4587
 22
110.8726
 32
66.8140
 13
109.4587
 23
110.8726
 33
66.8140
  0
3DFACE
  8
TIN_3D
 10
109.4587
 20
110.8726
 30
66.8140
 11
159.5288
 21
112.6305
 31
68.9550
 12
148.1193
 22
152.2387
 32
67.3140
 13
148.1193
 23
152.2387
 33
67.3140
  0
POLYLINE
  8
BORDER
 66
1
 10
0.0
 20
0.0
 30
0.0000
 70
1
  0
VERTEX
  8
BORDER
 10
-31.5561
 20
-29.9111
 30
0.0000
  0
VERTEX
  8
BORDER
 10
250.4695
 20
-29.9111
 30
0.0000
  0
VERTEX
  8
BORDER
 10
250.4695
 20
251.6626
 30
0.0000
  0
VERTEX
  8
BORDER
 10
-31.5561
 20
251.6626
 30
0.0000
  0
SEQEND
  8
BORDER
  0
LINE
  8
NORTH
 10
240.4695
 20
231.6626
 30
0.0
 11
240.4695
 21
246.6626
 31
0.0
  0
LINE
  8
NORTH
 10
240.4695
 20
246.6626
 30
0.0
 11
237.9695
 21
241.6626
 31
0.0
  0
LINE
  8
NORTH
 10
240.4695
 20
246.6626
 30
0.0
 11
242.9695
 21
241.6626
 31
0.0
  0
TEXT
  8
NORTH
 10
239.2195
 20
247.9126
 30
0.0000
 40
3.7500
  1
N
 50
0.00
  0
TEXT
  8
TITLE
 10
-29.0561
 20
-5.4111
 30
0.0000
 40
4.5000
  1
Simulated site (rtkd end-to-end)
 50
0.00
  0
TEXT
  8
TITLE
 10
-29.0561
 20
-10.9111
 30
0.0000
 40
2.7500
  1
WGS84 / UTM zone 29N  (local origin E665970 N5915360)
 50
0.00
  0
TEXT
  8
TITLE
 10
-29.0561
 20
-16.4111
 30
0.0000
 40
2.7500
  1
49 points   contour interval 1 m   scale 1:1000
 50
0.00
  0
TEXT
  8
TITLE
 10
-29.0561
 20
-21.9111
 30
0.0000
 40
2.7500
  1
Surveyed 2026-10-02   simulated rover
 50
0.00
  0
TEXT
  8
TITLE
 10
-29.0561
 20
-27.4111
 30
0.0000
 40
2.7500
  1
HOBBY SURVEY - NOT FOR PERMITS OR BOUNDARY USE
 50
0.00
  0
ENDSEC
  0
EOF
